<svg width="48" height="48" viewBox="0 0 48 48" fill="none" xmlns="http://www.w3.org/2000/svg">
<circle cx="24" cy="24" r="24" fill="white"/>
<path d="M43.1442 11.6093C43.5907 13.1163 43.8698 14.6791 43.8698 16.2977C43.8698 21.6 41.2466 26.2326 37.2838 29.1907C30.4186 34.2698 20.3721 34.2698 6.53027 38.6233C10.7163 43.6465 16.9675 46.8279 24 46.8279C36.614 46.8279 46.7721 36.614 46.7721 24.0558C46.7721 19.4233 45.4326 15.1814 43.1442 11.6093" fill="#005992"/>
<path d="M37.6745 5.74886C33.8792 2.90235 29.135 1.17212 24.0001 1.17212C11.3862 1.17212 1.22803 11.3861 1.22803 24C1.22803 29.0791 2.90245 33.7675 5.69314 37.507C20.9862 33.0419 33.0978 21.0419 37.6745 5.74886" fill="#ED1A38"/>
</svg>
