<svg width="48" height="48" viewBox="0 0 48 48" fill="none" xmlns="http://www.w3.org/2000/svg">
<circle cx="24" cy="24" r="24" fill="#E82127"/>
<path d="M24.0016 42L28.4783 16.7146C32.7455 16.7146 34.0914 17.1845 34.2857 19.1026C34.2857 19.1026 37.1483 18.0307 38.592 15.8537C32.9581 13.2319 27.2973 13.1137 27.2973 13.1137L23.9941 17.1541L24.0016 17.1536L20.6984 13.113C20.6984 13.113 15.0375 13.2314 9.4043 15.8532C10.8468 18.0302 13.7104 19.1021 13.7104 19.1021C13.9059 17.1839 15.2502 16.714 19.4887 16.7109L24.0016 42" fill="white"/>
<path d="M24 11.9466C28.5542 11.9116 33.7671 12.6541 39.1034 14.9899C39.8166 13.7007 40 13.1309 40 13.1309C34.1666 10.8131 28.7036 10.0199 23.9994 10C19.2953 10.0199 13.8327 10.8132 8 13.1309C8 13.1309 8.26021 13.8327 8.89596 14.9899C14.2313 12.6541 19.445 11.9116 23.9994 11.9466H24" fill="white"/>
</svg>
