<svg width="48" height="48" viewBox="0 0 48 48" fill="none" xmlns="http://www.w3.org/2000/svg">
<circle cx="24" cy="24" r="24" fill="url(#paint0_linear_602_1970)"/>
<path fill-rule="evenodd" clip-rule="evenodd" d="M33.9886 10.4131C32.5125 8.72364 29.8466 8 26.4346 8H16.533C15.8363 8 15.2425 8.50909 15.1337 9.20145L11.0105 35.4618C10.9715 35.7083 11.042 35.9596 11.2035 36.1494C11.365 36.3392 11.6013 36.4486 11.8501 36.4487H17.9635L17.5415 39.136C17.5074 39.3517 17.5691 39.5715 17.7103 39.7377C17.8516 39.9039 18.0583 39.9997 18.276 40H23.4287C24.0389 39.9995 24.558 39.5538 24.6525 38.9491L24.7033 38.6858L25.6734 32.504L25.7364 32.1622C25.831 31.5575 26.3501 31.1118 26.9603 31.1113H27.731C32.7227 31.1113 36.6313 29.0749 37.774 23.184C38.2503 20.7222 38.0045 18.6676 36.7423 17.2225C36.3602 16.7862 35.886 16.4247 35.3321 16.1295C35.72 13.6407 35.3292 11.9476 33.9886 10.4131V10.4131Z" fill="#009CDE"/>
<path fill-rule="evenodd" clip-rule="evenodd" d="M33.9886 10.4131C32.5125 8.72364 29.8466 8 26.4346 8H16.533C15.8363 8 15.2425 8.50909 15.1337 9.20145L11.0105 35.4618C10.9715 35.7083 11.042 35.9596 11.2035 36.1494C11.365 36.3392 11.6013 36.4486 11.8501 36.4487H17.9635L19.4976 26.6691L19.4505 26.976C19.5561 26.2853 20.1481 25.7751 20.8447 25.7745H23.7499C29.4558 25.7745 33.9241 23.4465 35.2299 16.7127C35.267 16.5189 35.3008 16.3244 35.3314 16.1295C35.7193 13.6407 35.3285 11.9476 33.9879 10.4131H33.9886Z" fill="#012169"/>
<path fill-rule="evenodd" clip-rule="evenodd" d="M21.8373 15.2342C22.0004 15.1556 22.1817 15.112 22.3731 15.112H30.1337C31.053 15.112 31.91 15.1724 32.6945 15.2996C32.9185 15.336 33.1367 15.3775 33.3484 15.424C33.6554 15.4929 33.9588 15.5766 34.2576 15.6749C34.6272 15.7964 34.9861 15.9484 35.3306 16.1295C35.7193 13.6407 35.3285 11.9476 33.9879 10.4131C32.5125 8.72364 29.8466 8 26.4346 8H16.533C15.8363 8 15.2425 8.50909 15.1337 9.20145L11.0105 35.4618C10.9715 35.7083 11.042 35.9596 11.2035 36.1494C11.365 36.3392 11.6013 36.4486 11.8501 36.4487H17.9635L21.1485 16.1622C21.2138 15.7462 21.4798 15.4058 21.8373 15.2335V15.2342Z" fill="#003087"/>
<defs>
<linearGradient id="paint0_linear_602_1970" x1="72" y1="24" x2="24" y2="-24" gradientUnits="userSpaceOnUse">
<stop stop-color="#F3F3F3"/>
<stop offset="1" stop-color="white"/>
</linearGradient>
</defs>
</svg>
