<svg width="48" height="48" viewBox="0 0 48 48" fill="none" xmlns="http://www.w3.org/2000/svg">
<circle cx="24" cy="24" r="24" fill="#131921"/>
<path fill-rule="evenodd" clip-rule="evenodd" d="M35.6092 31.8851C36.7414 31.7457 38.5404 31.8318 38.8945 32.2937H38.8944C39.1635 32.6454 38.8855 34.226 38.4295 35.3591C37.9705 36.486 37.2863 37.2824 36.9084 37.5899C36.5253 37.8975 36.2433 37.7784 36.4473 37.3165C36.6585 36.8546 37.8145 33.9908 37.3564 33.3896C36.932 32.8339 35.0068 33.0351 34.1125 33.1286C34.046 33.1355 33.9852 33.1419 33.9311 33.1473C33.7422 33.1643 33.5899 33.1813 33.4666 33.1951C33.0816 33.2381 32.9787 33.2496 32.9212 33.1313C32.7732 32.7145 34.4753 32.0203 35.6092 31.8851ZM8.86861 32.3482C14.1174 35.5537 22.2419 40.5154 35.1914 34.3422H35.1912C35.7493 34.1089 36.1394 34.4985 35.5872 35.2047C35.0312 35.917 30.587 40 23.1167 40C15.6514 40 9.93223 34.8912 8.18709 32.7716C7.70908 32.2217 8.26001 31.9733 8.58416 32.1746C8.67802 32.2318 8.77284 32.2897 8.86861 32.3482Z" fill="#FF9900"/>
<path fill-rule="evenodd" clip-rule="evenodd" d="M30.3481 10.0614C28.7205 8.53694 26.0669 8 24.0307 8C20.0124 8 15.5246 9.50057 14.5795 14.4782C14.4844 15.0082 14.8648 15.288 15.2095 15.3655L19.3111 15.8061C19.6915 15.7882 19.9708 15.4131 20.0422 15.0319C20.3929 13.3171 21.8315 12.4895 23.4423 12.4895C24.3102 12.4895 25.297 12.8111 25.8142 13.5911C26.2967 14.3039 26.3316 15.2329 26.3286 16.0991L26.3283 16.1624L26.3277 16.2568L26.3263 16.4436L26.3259 16.5052L26.3256 16.5664L26.3254 16.6575V17.2053C26.056 17.2361 25.7775 17.2657 25.492 17.2952L25.3356 17.3114L24.7787 17.3685L24.6171 17.3852C22.5106 17.604 20.1675 17.8864 18.3778 18.676C15.7327 19.8192 13.8721 22.1592 13.8721 25.5948C13.8721 29.9949 16.6421 32.1921 20.1968 32.1921C23.2046 32.1921 24.8453 31.4836 27.1635 29.1137C27.2021 29.1694 27.2395 29.2237 27.2757 29.2766L27.3187 29.3396L27.3398 29.3706L27.3813 29.4318L27.422 29.492L27.5588 29.6947L27.5967 29.7507L27.6341 29.8059L27.6527 29.8332L27.6896 29.8874C28.144 30.5512 28.5507 31.0725 29.5888 31.936C29.9006 32.1012 30.2999 32.0852 30.579 31.8423L30.5873 31.8349L30.5992 31.8468L30.6247 31.8241L30.7308 31.73L30.8428 31.6308L30.9905 31.5003L31.0827 31.419L31.2095 31.3073L31.3734 31.1633L31.5767 30.985L31.6805 30.8942L31.8559 30.7409L32.0335 30.5859L32.2122 30.4303L32.3554 30.306L32.4981 30.1822L32.6399 30.0596L32.7452 29.9685L32.8841 29.8488L33.0205 29.7315L33.1209 29.6453L33.2195 29.5609L33.284 29.5057L33.379 29.4247L33.441 29.372L33.5317 29.2949L33.5907 29.245L33.6766 29.1724L33.7322 29.1256L33.7862 29.0803L33.8387 29.0363C34.1836 28.7506 34.124 28.292 33.8506 27.911C33.812 27.8574 33.7733 27.8043 33.7345 27.7516L33.688 27.6884L33.6647 27.657L33.5719 27.5316L33.5257 27.4691L33.4796 27.4067C32.8364 26.5325 32.2576 25.6527 32.2576 23.9871V17.3898C32.2576 17.2781 32.2579 17.1668 32.2584 17.0558L32.2592 16.8897L32.2615 16.4771C32.2735 14.0405 32.2276 11.8195 30.3971 10.1079L30.3481 10.0614ZM20.0422 24.8624C20.0422 21.2541 23.2699 20.5992 26.3254 20.5992L26.3254 21.5655L26.3257 21.9551L26.3257 22.051C26.324 23.4691 26.2755 24.702 25.5348 26.0055C24.8631 27.1965 23.799 27.9288 22.6102 27.9288C20.9873 27.9288 20.0422 26.6903 20.0422 24.8624Z" fill="white"/>
</svg>
