<svg width="86" height="32" viewBox="0 0 86 32" fill="none" xmlns="http://www.w3.org/2000/svg">
<g clip-path="url(#clip0_395_76)">
<path d="M24.5659 14.3501C24.8251 13.3789 24.718 12.6358 24.2444 12.1208C23.7708 11.6059 22.9429 11.3466 21.7608 11.3432H17.2308L14.5 21.589H16.6932L17.7977 17.4416H19.246C19.511 17.4283 19.775 17.4824 20.0134 17.5988C20.1102 17.6594 20.1908 17.7423 20.2486 17.8408C20.3064 17.9391 20.3396 18.05 20.3453 18.164L20.741 21.589H23.0916L22.7079 18.4076C22.6319 17.6974 22.3052 17.2792 21.7383 17.153C22.4242 16.9638 23.0501 16.6021 23.5566 16.1023C24.0459 15.6207 24.3948 15.0149 24.5659 14.3501ZM22.466 14.3864C22.3714 14.8064 22.1141 15.1718 21.7504 15.4025C21.4047 15.6202 20.9001 15.7274 20.2588 15.7274H18.2229L18.9384 13.0505H20.9761C21.6156 13.0505 22.0546 13.1594 22.2966 13.3754C22.5385 13.5914 22.5904 13.9336 22.466 14.3864Z" fill="#666666"/>
<path d="M30.8991 14.2654L30.6207 15.3022C30.5048 14.9317 30.2595 14.6152 29.9294 14.4105C29.5445 14.1796 29.1008 14.0655 28.6522 14.0822C28.0229 14.0824 27.4045 14.2468 26.8582 14.5592C26.2636 14.9001 25.75 15.3659 25.3528 15.9243C24.915 16.5282 24.5944 17.2087 24.4074 17.9306C24.2112 18.5732 24.1698 19.2529 24.2863 19.9145C24.3754 20.4371 24.655 20.908 25.071 21.2365C25.5233 21.5598 26.0712 21.7217 26.6266 21.6962C27.1225 21.6973 27.6129 21.5911 28.0639 21.3851C28.515 21.1789 28.9161 20.8777 29.2398 20.502L28.9529 21.5839H31.0909L33.0404 14.2654H30.8991ZM29.9278 17.8944C29.7955 18.4903 29.5012 19.0381 29.0773 19.4773C28.8949 19.656 28.6786 19.7965 28.4412 19.8909C28.2038 19.9852 27.9501 20.0314 27.6947 20.0268C27.1503 20.0268 26.7838 19.854 26.5868 19.4859C26.3898 19.1179 26.3846 18.6046 26.5644 17.9306C26.7011 17.3294 27 16.7772 27.4285 16.3339C27.6117 16.1499 27.8296 16.0042 28.0697 15.9054C28.3098 15.8066 28.5671 15.7566 28.8268 15.7585C29.3591 15.7585 29.722 15.9434 29.9087 16.3114C30.0954 16.6795 30.1144 17.1997 29.9312 17.8927L29.9278 17.8944Z" fill="#666666"/>
<path d="M40.6674 14.2706H34.5093L34.0548 15.9779H37.6393L32.9261 20.089L32.5234 21.5977H38.8837L39.3383 19.8903H35.4927L40.2837 15.7204L40.6674 14.2706Z" fill="#666666"/>
<path d="M47.4028 14.5384C46.8309 14.2117 46.1787 14.0524 45.5206 14.0788C44.7783 14.0723 44.0437 14.2293 43.3689 14.5384C42.7125 14.8445 42.1357 15.2981 41.6837 15.8639C41.2116 16.4574 40.8706 17.1441 40.683 17.8788C40.4813 18.5323 40.4563 19.2275 40.6104 19.8937C40.7519 20.4468 41.1034 20.9229 41.5904 21.2209C42.0858 21.5263 42.7196 21.6789 43.4915 21.6789C44.2259 21.6853 44.9525 21.5289 45.6192 21.2209C46.2735 20.9148 46.8475 20.4605 47.2956 19.8937C47.7687 19.3007 48.1104 18.6138 48.2981 17.8788C48.5002 17.2254 48.5247 16.5299 48.369 15.8639C48.2329 15.3126 47.886 14.8368 47.4028 14.5384ZM46.1549 17.8753C45.9631 18.5942 45.6814 19.1334 45.3011 19.4894C44.9342 19.8389 44.4442 20.0296 43.9374 20.0199C42.8198 20.0199 42.4516 19.3051 42.833 17.8753C43.0209 17.1657 43.309 16.6306 43.6973 16.27C44.0689 15.9145 44.5657 15.7202 45.0799 15.7291C45.6123 15.7291 45.9752 15.9019 46.1618 16.27C46.3486 16.6381 46.3433 17.1651 46.1549 17.8753Z" fill="#666666"/>
<path d="M70.6835 14.2654L70.4052 15.3022C70.2893 14.9317 70.0439 14.6152 69.7139 14.4105C69.3297 14.1774 68.8858 14.0615 68.4367 14.077C67.8063 14.0784 67.1872 14.2446 66.6409 14.5591C66.0458 14.9 65.5316 15.3658 65.1338 15.9243C64.6967 16.5286 64.3761 17.2089 64.1883 17.9306C63.994 18.5735 63.9525 19.2528 64.0674 19.9145C64.1565 20.437 64.436 20.908 64.8521 21.2365C65.3103 21.5625 65.865 21.7244 66.4266 21.6962C66.9114 21.6943 67.3904 21.5895 67.8317 21.3885C68.2871 21.1842 68.6914 20.8815 69.0157 20.502L68.7287 21.5838H70.8667L72.818 14.2654H70.6835ZM69.707 17.8944C69.5754 18.4901 69.2817 19.0379 68.8583 19.4773C68.6755 19.6554 68.4592 19.7956 68.2218 19.8899C67.9846 19.9842 67.731 20.0308 67.4757 20.0268C66.9295 20.0268 66.5632 19.854 66.3661 19.4859C66.1691 19.1179 66.1656 18.6046 66.3436 17.9306C66.481 17.3297 66.7798 16.7776 67.2078 16.3339C67.3913 16.15 67.6097 16.0044 67.85 15.9056C68.0903 15.8068 68.3479 15.7568 68.6077 15.7584C69.1401 15.7584 69.5007 15.9428 69.6897 16.3114C69.8902 16.6691 69.8954 17.1997 69.707 17.8926V17.8944Z" fill="#666666"/>
<path d="M55.0128 16.2354L55.559 14.2429C55.3287 14.1387 55.0772 14.0896 54.8245 14.0995C54.3305 14.1001 53.8448 14.2274 53.4141 14.4693C53.0213 14.6845 52.6804 14.9829 52.4152 15.3437L52.6968 14.2706H50.5606L48.5938 21.589H50.7611L51.7791 17.7682C51.8984 17.2584 52.1776 16.8001 52.5759 16.4601C52.9855 16.1402 53.4944 15.9744 54.0139 15.9918C54.3618 15.9903 54.7047 16.074 55.0128 16.2354Z" fill="#666666"/>
<path d="M62.5664 14.5747C62.1242 14.2368 61.5773 14.0649 61.0212 14.0891C60.4802 14.0897 59.9471 14.2188 59.4658 14.4658C58.9835 14.7029 58.5677 15.0563 58.2559 15.494L58.2646 15.4439L58.6292 14.2705H56.5034L55.9607 16.3045C55.9607 16.327 55.9486 16.3512 55.9434 16.3736L53.7139 24.7549H55.8915L57.0167 20.5314C57.1242 20.904 57.3721 21.2205 57.708 21.4144C58.098 21.6384 58.5428 21.7486 58.9922 21.7324C59.6235 21.7342 60.2451 21.5773 60.8 21.2762C61.3906 20.9508 61.9004 20.4966 62.2916 19.9473C62.722 19.3465 63.0367 18.6708 63.2197 17.9549C63.4172 17.3027 63.4622 16.6139 63.3511 15.9416C63.2601 15.4073 62.982 14.9227 62.5664 14.5747ZM61.0265 17.9203C60.8936 18.5067 60.6012 19.045 60.1812 19.4756C59.8097 19.8309 59.3127 20.0247 58.7986 20.0147C58.2628 20.0147 57.8999 19.8298 57.708 19.4652C57.5162 19.1006 57.5058 18.5752 57.6942 17.8822C57.8288 17.2818 58.1281 16.7306 58.5584 16.2907C58.7412 16.1122 58.9574 15.9715 59.1946 15.8766C59.4319 15.7817 59.6856 15.7345 59.9411 15.7377C60.4596 15.7377 60.8208 15.9312 61.0092 16.3131C61.1976 16.6951 61.2096 17.2359 61.0265 17.9203Z" fill="#666666"/>
<path d="M81.9081 14.0269H79.6613L79.3156 14.7492C79.288 14.7855 79.262 14.8218 79.2309 14.8667L79.1946 14.9255L76.4292 18.7929L75.8555 14.2705H73.5879L74.7407 21.2071L72.1914 24.7549H74.3742L75.0051 23.8545C75.0242 23.8269 75.0432 23.8044 75.0604 23.7751L75.7985 22.7226L75.8226 22.695L79.1186 17.9928L81.9081 14.0269Z" fill="#666666"/>
<path d="M8.94877 12.5131L8.29199 14.9048L11.9976 12.501L9.57788 21.589H12.0339L15.6098 8.16522L8.94877 12.5131Z" fill="#666666"/>
<path d="M4.95624 17.7665L3.93652 21.589H8.97464L11.0366 13.8126L4.95624 17.7665Z" fill="#666666"/>
</g>
<defs>
<clipPath id="clip0_395_76">
<rect width="78.0635" height="16.5896" fill="white" transform="translate(3.93652 8.16522)"/>
</clipPath>
</defs>
</svg>
