<svg width="26" height="32" viewBox="0 0 26 32" fill="none" xmlns="http://www.w3.org/2000/svg">
<g clip-path="url(#clip0_395_92)">
<path d="M21.5028 12.5796C20.0225 13.4944 19.1081 15.0625 19.1081 16.8049C19.1081 18.7652 20.2837 20.5511 22.0688 21.2917C21.7205 22.4242 21.198 23.4697 20.5449 24.428C19.5871 25.7784 18.5857 27.1723 17.1053 27.1723C15.625 27.1723 15.1896 26.3011 13.448 26.3011C11.75 26.3011 11.1404 27.2159 9.74719 27.2159C8.35393 27.2159 7.39607 25.9526 6.30758 24.3844C4.87079 22.2064 4.04354 19.6799 4 17.0227C4 12.7103 6.78652 10.4016 9.57303 10.4016C11.0534 10.4016 12.2725 11.3599 13.1868 11.3599C14.0576 11.3599 15.4508 10.358 17.1053 10.358C18.8469 10.3145 20.5014 11.1421 21.5028 12.5796ZM16.3216 8.52849C17.0618 7.65728 17.4536 6.56828 17.4972 5.43571C17.4972 5.30503 17.4972 5.13079 17.4536 5.00011C16.191 5.13079 15.0154 5.74063 14.1882 6.69896C13.448 7.5266 13.0126 8.57205 12.9691 9.70462C12.9691 9.8353 12.9691 9.96598 13.0126 10.0967C13.0997 10.0967 13.2303 10.1402 13.3174 10.1402C14.493 10.0531 15.5815 9.44326 16.3216 8.52849Z" fill="#666666"/>
</g>
<defs>
<clipPath id="clip0_395_92">
<rect width="18.0688" height="22.2157" fill="white" transform="translate(4 5)"/>
</clipPath>
</defs>
</svg>
