<svg width="86" height="32" viewBox="0 0 86 32" fill="none" xmlns="http://www.w3.org/2000/svg">
<g clip-path="url(#clip0_395_32)">
<path d="M37.8976 21.4102C36.847 21.4102 35.9625 21.1849 35.241 20.7342C34.5201 20.2741 34.0056 19.6337 33.6943 18.8129L35.7653 17.6127C36.1853 18.5827 36.9206 19.0689 37.9712 19.0689C38.9224 19.0689 39.3968 18.7843 39.3968 18.2131C39.3968 17.8928 39.2426 17.6532 38.9323 17.4916C38.6116 17.3018 38.0428 17.0958 37.2216 16.8774C36.382 16.6476 35.6704 16.3175 35.0918 15.8886C34.4514 15.3687 34.1312 14.6334 34.1312 13.6827C34.1312 12.7315 34.4751 11.9369 35.1654 11.3582C35.8651 10.7771 36.6953 10.4876 37.6559 10.4876C38.5167 10.4876 39.2757 10.6916 39.9354 11.1018C40.5946 11.5025 41.1164 12.0861 41.4959 12.857L39.4699 14.0429C39.0909 13.232 38.4861 12.8288 37.6559 12.8288C37.3051 12.8288 37.0298 12.9044 36.8307 13.0542C36.6311 13.2034 36.5293 13.3931 36.5293 13.6234C36.5293 13.8725 36.6503 14.0978 36.89 14.2994C37.1504 14.4985 37.6609 14.7095 38.4194 14.9299L39.3943 15.2457C39.6434 15.3262 39.9354 15.4616 40.265 15.6509C40.6257 15.8313 40.896 16.026 41.0759 16.237C41.5552 16.7563 41.7974 17.4066 41.7974 18.1869C41.7974 19.1757 41.4366 19.9683 40.7182 20.5563C39.9967 21.1256 39.0578 21.4127 37.8976 21.4127V21.4102ZM49.5011 17.7194L50.5803 13.699H52.9809L50.5803 21.2017H48.4787L47.2785 17.1951L46.0787 21.2017H43.9771L41.5765 13.6985H43.9771L45.0563 17.7189L46.2254 13.6985H48.327L49.4962 17.7189L49.5011 17.7194ZM55.6444 12.6485C55.5221 12.7745 55.3752 12.874 55.2128 12.9409C55.0505 13.0078 54.8761 13.0406 54.7006 13.0374C54.5227 13.0393 54.3461 13.006 54.1812 12.9392C54.0163 12.8725 53.8663 12.7736 53.7399 12.6485C53.6142 12.5224 53.515 12.3725 53.4482 12.2075C53.3813 12.0425 53.3481 11.8658 53.3505 11.6878C53.3505 11.3177 53.481 11.0025 53.7399 10.744C54.0102 10.4732 54.3304 10.3383 54.7006 10.3383C55.0702 10.3383 55.3859 10.4732 55.6444 10.7435C55.9147 11.0044 56.0501 11.3177 56.0501 11.6873C56.0501 12.058 55.9147 12.3782 55.6444 12.6485ZM55.8247 21.1992H53.5739V13.6965H55.8247V21.1992ZM62.6771 14.463V13.697H64.8661V20.8222C64.8661 22.0032 64.4822 22.8926 63.7113 23.4925C62.9523 24.1023 62.0154 24.4082 60.9051 24.4082C59.2047 24.4082 58.0188 23.8033 57.3497 22.5937L59.2709 21.4838C59.6223 22.1148 60.1915 22.4301 60.9812 22.4301C61.5218 22.4301 61.9368 22.2903 62.2264 22.0101C62.5278 21.7304 62.6771 21.3341 62.6771 20.8241V20.1343C62.1483 20.7841 61.4175 21.1088 60.488 21.1088C59.437 21.1088 58.5569 20.7391 57.8478 19.9989C57.1481 19.2587 56.7972 18.3573 56.7972 17.2974C56.7972 16.237 57.1481 15.343 57.8478 14.6122C58.5475 13.8626 59.4276 13.488 60.488 13.488C61.4175 13.488 62.1483 13.8132 62.6771 14.463ZM59.5555 18.5595C59.9069 18.8792 60.3408 19.0383 60.8601 19.0383C61.3794 19.0383 61.8163 18.8792 62.1646 18.559C62.5041 18.2486 62.6746 17.8286 62.6746 17.2999C62.6746 16.7711 62.5041 16.3486 62.1646 16.0398C61.8138 15.7201 61.3794 15.561 60.8601 15.561C60.3408 15.561 59.9044 15.7201 59.5555 16.0403C59.2166 16.3511 59.0456 16.7706 59.0456 17.2999C59.0456 17.8286 59.2166 18.2511 59.5555 18.5595ZM71.7234 14.463V13.697H73.913V20.8222C73.913 22.0032 73.5286 22.8926 72.7577 23.4925C71.9987 24.1023 71.0618 24.4082 69.9519 24.4082C68.2511 24.4082 67.0651 23.8033 66.396 22.5937L68.3173 21.4838C68.6686 22.1148 69.2379 22.4301 70.0275 22.4301C70.5686 22.4301 70.9837 22.2903 71.2728 22.0101C71.5742 21.7304 71.7234 21.3341 71.7234 20.8241V20.1343C71.1947 20.7841 70.4639 21.1088 69.5344 21.1088C68.4833 21.1088 67.6037 20.7391 66.8941 19.9989C66.1944 19.2587 65.8436 18.3573 65.8436 17.2974C65.8436 16.237 66.1944 15.343 66.8941 14.6122C67.5938 13.8626 68.4739 13.488 69.5344 13.488C70.4639 13.488 71.1947 13.8132 71.7234 14.463ZM68.6019 18.5595C68.9532 18.8792 69.3871 19.0383 69.9065 19.0383C70.4263 19.0383 70.8626 18.8792 71.211 18.559C71.5505 18.2486 71.721 17.8286 71.721 17.2999C71.721 16.7711 71.5505 16.3486 71.211 16.0398C70.8602 15.7201 70.4263 15.561 69.9065 15.561C69.3871 15.561 68.9508 15.7201 68.6019 16.0403C68.2629 16.3511 68.092 16.7706 68.092 17.2999C68.092 17.8286 68.2629 18.2511 68.6019 18.5595ZM78.5807 18.2887L79.992 13.6965H82.3926L79.826 20.9739C79.406 22.143 78.851 22.985 78.1607 23.495C77.4803 24.0143 76.6096 24.2496 75.5496 24.1996V22.098C76.069 22.098 76.4697 22.0032 76.7494 21.8134C77.0296 21.633 77.2549 21.3128 77.4254 20.8528L74.4393 13.6965H76.9155L78.5807 18.2887Z" fill="#666666"/>
<path fill-rule="evenodd" clip-rule="evenodd" d="M17.1969 12.5105V8.84964C17.1963 8.73547 17.1507 8.62616 17.0699 8.54551C16.9891 8.46485 16.8797 8.41938 16.7655 8.41899C16.6515 8.41957 16.5423 8.46513 16.4617 8.54577C16.381 8.6264 16.3355 8.7356 16.3349 8.84964V13.1502C16.3349 13.3939 16.5329 13.5882 16.7729 13.5882H17.1932C23.3033 13.5882 23.9386 13.9062 23.5572 15.196C23.5396 15.2593 23.5182 15.3196 23.4969 15.3874L23.4866 15.4256C21.8818 20.2629 17.5429 26.3162 16.2605 28.0476C16.2187 28.1044 16.1642 28.1505 16.1013 28.1823C16.0383 28.2142 15.9688 28.2307 15.8983 28.2307C15.8279 28.2307 15.7583 28.2142 15.6954 28.1823C15.6325 28.1505 15.578 28.1044 15.5362 28.0476C14.7625 27.0016 12.8684 24.3728 11.1406 21.3899C11.0236 21.1175 10.9669 20.4822 12.8853 20.4822H15.2321C15.3632 20.4822 15.4692 20.5883 15.4692 20.7185V22.6127C15.4692 22.8387 15.6348 23.047 15.8608 23.0654C15.9238 23.0707 15.9873 23.062 16.0466 23.04C16.1058 23.018 16.1596 22.9832 16.2038 22.938C16.2448 22.8988 16.2773 22.8516 16.2992 22.7993C16.3211 22.747 16.332 22.6907 16.3312 22.634V20.0649C16.3304 19.947 16.2832 19.8343 16.1999 19.751C16.1165 19.6678 16.0036 19.6208 15.8858 19.6202H11.1443C10.3169 19.6202 9.81555 18.9135 9.4865 18.2701C8.45515 16.1073 7.7168 13.9732 7.7168 12.2911C7.7168 7.98466 11.1509 4.10811 15.8932 4.10811C20.1157 4.10811 23.3136 7.17785 23.9636 10.8924C23.9673 10.9241 23.9916 11.0654 23.9952 11.0934C24.1646 12.9169 19.409 12.7085 17.4089 12.7188C17.381 12.719 17.3534 12.7137 17.3276 12.7031C17.3017 12.6925 17.2783 12.6769 17.2586 12.6572C17.2388 12.6374 17.2232 12.614 17.2127 12.5882C17.2021 12.5624 17.1967 12.5347 17.1969 12.5068V12.5105Z" fill="#666666"/>
</g>
<defs>
<clipPath id="clip0_395_32">
<rect width="78.5695" height="24.2132" fill="white" transform="translate(4 4)"/>
</clipPath>
</defs>
</svg>
