<svg width="25" height="32" viewBox="0 0 25 32" fill="none" xmlns="http://www.w3.org/2000/svg">
<g clip-path="url(#clip0_398_132)">
<path d="M21.0908 12.8342C19.5607 13.7797 18.6157 15.4006 18.6157 17.2015C18.6157 19.2276 19.8307 21.0735 21.6758 21.8389C21.3158 23.0096 20.7757 24.0901 20.1007 25.0806C19.1107 26.4764 18.0756 27.9171 16.5456 27.9171C15.0155 27.9171 14.5655 27.0167 12.7654 27.0167C11.0103 27.0167 10.3803 27.9622 8.94025 27.9622C7.50019 27.9622 6.51015 26.6565 5.3851 25.0356C3.90004 22.7844 3.045 20.1731 3 17.4266C3 12.9693 5.88012 10.583 8.76024 10.583C10.2903 10.583 11.5504 11.5736 12.4954 11.5736C13.3954 11.5736 14.8355 10.538 16.5456 10.538C18.3456 10.493 20.0557 11.3484 21.0908 12.8342ZM15.7355 8.64703C16.5006 7.74656 16.9056 6.62097 16.9506 5.45036C16.9506 5.31529 16.9506 5.13519 16.9056 5.00012C15.6005 5.13519 14.3855 5.76552 13.5304 6.75604C12.7654 7.61149 12.3154 8.69206 12.2704 9.86267C12.2704 9.99774 12.2704 10.1328 12.3154 10.2679C12.4054 10.2679 12.5404 10.3129 12.6304 10.3129C13.8455 10.2229 14.9705 9.59253 15.7355 8.64703Z" fill="#666666"/>
</g>
<defs>
<clipPath id="clip0_398_132">
<rect width="18.6758" height="22.962" fill="white" transform="translate(3 5)"/>
</clipPath>
</defs>
</svg>
