<svg width="98" height="32" viewBox="0 0 98 32" fill="none" xmlns="http://www.w3.org/2000/svg">
<path d="M30.5503 22.6203C29.1631 22.6203 27.9951 22.3228 27.0424 21.7277C26.0904 21.1202 25.4111 20.2745 25 19.1907L27.7347 17.6057C28.2893 18.8866 29.2603 19.5287 30.6475 19.5287C31.9036 19.5287 32.5301 19.1528 32.5301 18.3985C32.5301 17.9757 32.3265 17.6592 31.9167 17.4459C31.4932 17.1953 30.7422 16.9232 29.6577 16.6348C28.549 16.3314 27.6094 15.8955 26.8453 15.3291C25.9997 14.6426 25.5768 13.6717 25.5768 12.4162C25.5768 11.1601 26.031 10.1109 26.9425 9.3468C27.8665 8.57944 28.9627 8.19706 30.2312 8.19706C31.3679 8.19706 32.3702 8.46655 33.2413 9.00814C34.1118 9.53733 34.8008 10.308 35.302 11.3259L32.6266 12.8919C32.1261 11.8211 31.3275 11.2887 30.2312 11.2887C29.768 11.2887 29.4045 11.3885 29.1415 11.5862C28.8779 11.7833 28.7435 12.0339 28.7435 12.3379C28.7435 12.6668 28.9034 12.9644 29.2198 13.2306C29.5637 13.4936 30.2378 13.7722 31.2394 14.0632L32.5268 14.4802C32.8557 14.5865 33.2413 14.7653 33.6765 15.0152C34.1529 15.2534 34.5098 15.5105 34.7473 15.7891C35.3803 16.4749 35.7 17.3336 35.7 18.3639C35.7 19.6696 35.2237 20.7163 34.2749 21.4928C33.3222 22.2445 32.0824 22.6236 30.5503 22.6236V22.6203ZM45.8728 17.7467L47.2979 12.4378H50.4678L47.2979 22.345H44.5227L42.9377 17.0543L41.3534 22.345H38.5783L35.4083 12.4371H38.5783L40.0033 17.746L41.5472 12.4371H44.3224L45.8662 17.746L45.8728 17.7467ZM53.9849 11.0505C53.8234 11.2169 53.6294 11.3484 53.415 11.4367C53.2006 11.525 52.9704 11.5684 52.7385 11.5641C52.5036 11.5667 52.2706 11.5226 52.0528 11.4345C51.8351 11.3463 51.637 11.2158 51.47 11.0505C51.3041 10.8841 51.1731 10.6861 51.0848 10.4682C50.9965 10.2504 50.9527 10.0171 50.9559 9.78203C50.9559 9.29329 51.1281 8.87698 51.47 8.53572C51.827 8.17814 52.2498 8 52.7385 8C53.2266 8 53.6436 8.17814 53.9849 8.53506C54.3418 8.87959 54.5206 9.29329 54.5206 9.78138C54.5206 10.2708 54.3418 10.6936 53.9849 11.0505ZM54.223 22.3417H51.2508V12.4345H54.223V22.3417ZM63.2715 13.4466V12.4352H66.1621V21.8438C66.1621 23.4033 65.6551 24.5779 64.6372 25.37C63.6349 26.1752 62.3978 26.5791 60.9316 26.5791C58.6862 26.5791 57.1202 25.7805 56.2367 24.1831L58.7737 22.7175C59.2376 23.5508 59.9893 23.9671 61.032 23.9671C61.7459 23.9671 62.294 23.7825 62.6764 23.4125C63.0744 23.0432 63.2715 22.5198 63.2715 21.8464V20.9355C62.5733 21.7936 61.6082 22.2223 60.3808 22.2223C58.9929 22.2223 57.8308 21.7342 56.8944 20.7567C55.9705 19.7793 55.5072 18.5891 55.5072 17.1894C55.5072 15.7891 55.9705 14.6087 56.8944 13.6436C57.8184 12.6538 58.9805 12.1592 60.3808 12.1592C61.6082 12.1592 62.5733 12.5885 63.2715 13.4466ZM59.1495 18.8559C59.6135 19.2781 60.1864 19.4882 60.8722 19.4882C61.558 19.4882 62.1348 19.2781 62.5948 18.8553C63.0431 18.4455 63.2682 17.8909 63.2682 17.1927C63.2682 16.4945 63.0431 15.9366 62.5948 15.5288C62.1315 15.1066 61.558 14.8965 60.8722 14.8965C60.1864 14.8965 59.6102 15.1066 59.1495 15.5294C58.7019 15.9398 58.4761 16.4938 58.4761 17.1927C58.4761 17.8909 58.7019 18.4488 59.1495 18.8559ZM75.2171 13.4466V12.4352H78.1084V21.8438C78.1084 23.4033 77.6008 24.5779 76.5829 25.37C75.5806 26.1752 74.3434 26.5791 72.8779 26.5791C70.6319 26.5791 69.0659 25.7805 68.1823 24.1831L70.7193 22.7175C71.1833 23.5508 71.935 23.9671 72.9777 23.9671C73.6922 23.9671 74.2403 23.7825 74.622 23.4125C75.0201 23.0432 75.2171 22.5198 75.2171 21.8464V20.9355C74.5189 21.7936 73.5539 22.2223 72.3265 22.2223C70.9386 22.2223 69.7771 21.7342 68.8401 20.7567C67.9161 19.7793 67.4528 18.5891 67.4528 17.1894C67.4528 15.7891 67.9161 14.6087 68.8401 13.6436C69.764 12.6538 70.9262 12.1592 72.3265 12.1592C73.5539 12.1592 74.5189 12.5885 75.2171 13.4466ZM71.0952 18.8559C71.5591 19.2781 72.132 19.4882 72.8178 19.4882C73.5043 19.4882 74.0805 19.2781 74.5405 18.8553C74.9888 18.4455 75.2139 17.8909 75.2139 17.1927C75.2139 16.4945 74.9888 15.9366 74.5405 15.5288C74.0772 15.1066 73.5043 14.8965 72.8178 14.8965C72.132 14.8965 71.5559 15.1066 71.0952 15.5294C70.6476 15.9398 70.4218 16.4938 70.4218 17.1927C70.4218 17.8909 70.6476 18.4488 71.0952 18.8559ZM84.2721 18.4984L86.1357 12.4345H89.3057L85.9165 22.0441C85.3618 23.588 84.6291 24.6999 83.7175 25.3733C82.819 26.0591 81.6692 26.3697 80.2696 26.3038V23.5286C80.9554 23.5286 81.4846 23.4033 81.8539 23.1528C82.2239 22.9146 82.5214 22.4918 82.7466 21.8843L78.8034 12.4345H82.0732L84.2721 18.4984Z" fill="#666666"/>
<path fill-rule="evenodd" clip-rule="evenodd" d="M12.4505 13.1846V10.1981C12.45 10.105 12.4128 10.0158 12.3468 9.95001C12.2809 9.88422 12.1917 9.84712 12.0986 9.8468C12.0055 9.84728 11.9165 9.88444 11.8507 9.95022C11.7849 10.016 11.7477 10.1051 11.7472 10.1981V13.7064C11.7472 13.9052 11.9088 14.0638 12.1046 14.0638H12.4475C17.4319 14.0638 17.9502 14.3232 17.6391 15.3753C17.6247 15.427 17.6073 15.4762 17.5898 15.5315L17.5814 15.5627C16.2723 19.5088 12.7327 24.447 11.6866 25.8594C11.6525 25.9057 11.608 25.9434 11.5567 25.9693C11.5053 25.9953 11.4486 26.0088 11.3911 26.0088C11.3336 26.0088 11.2769 25.9953 11.2256 25.9693C11.1743 25.9434 11.1298 25.9057 11.0957 25.8594C10.4645 25.0061 8.91933 22.8616 7.50988 20.4282C7.4144 20.206 7.36815 19.6878 8.93315 19.6878H10.8476C10.9545 19.6878 11.041 19.7742 11.041 19.8805V21.4257C11.041 21.6101 11.1761 21.78 11.3605 21.795C11.4119 21.7994 11.4637 21.7923 11.512 21.7743C11.5604 21.7564 11.6042 21.728 11.6404 21.6911C11.6738 21.6591 11.7002 21.6206 11.7181 21.5779C11.736 21.5353 11.7449 21.4894 11.7442 21.4431V19.3473C11.7436 19.2511 11.7051 19.1592 11.6371 19.0913C11.5691 19.0233 11.477 18.985 11.3809 18.9845H7.51288C6.83788 18.9845 6.42892 18.408 6.16048 17.8831C5.31913 16.1188 4.7168 14.3778 4.7168 13.0056C4.7168 9.49249 7.51829 6.33008 11.3869 6.33008C14.8316 6.33008 17.4403 8.8343 17.9706 11.8646C17.9736 11.8904 17.9934 12.0057 17.9964 12.0285C18.1345 13.5161 14.2551 13.3461 12.6234 13.3545C12.6007 13.3547 12.5781 13.3503 12.5571 13.3417C12.536 13.333 12.5169 13.3203 12.5008 13.3042C12.4847 13.2881 12.4719 13.269 12.4633 13.2479C12.4547 13.2269 12.4503 13.2043 12.4505 13.1816V13.1846Z" fill="#666666"/>
</svg>
