<svg width="70" height="32" viewBox="0 0 70 32" fill="none" xmlns="http://www.w3.org/2000/svg">
<g clip-path="url(#clip0_395_36)">
<path d="M53.4316 16.0272L58.988 26.489H64.4639L53.4316 5.76741L42.4395 26.4486H47.8751L53.4316 16.0272Z" fill="#666666"/>
<path d="M35.353 21.6015V5.72702H30.5615V26.4486H39.8625L42.4395 21.6015H35.353Z" fill="#666666"/>
<path d="M17.0329 4.99995C14.8586 4.99995 12.7246 5.64624 10.9127 6.85803C9.10083 8.06982 7.69158 9.80672 6.84603 11.8264C6.00049 13.8864 5.79917 16.108 6.20181 18.2489C6.64471 20.4301 7.69158 22.4093 9.22162 23.9443C10.7517 25.4792 12.7246 26.5698 14.8586 26.9738C16.9926 27.4181 19.2071 27.1757 21.2203 26.3275C23.2336 25.4792 24.9649 24.0655 26.1728 22.2478C27.3808 20.4301 28.025 18.2893 28.025 16.0676C28.025 13.1189 26.8573 10.2914 24.8039 8.23139C22.7504 6.17135 19.9319 4.99995 17.0329 4.99995ZM17.0329 22.0862C15.8652 22.0862 14.6975 21.7227 13.7312 21.0764C12.7649 20.4301 11.9998 19.501 11.5569 18.4104C11.114 17.3198 10.9932 16.108 11.1946 14.9366C11.4361 13.7652 11.9998 12.715 12.8051 11.8668C13.6507 11.0185 14.6975 10.453 15.8249 10.2107C16.9926 9.96829 18.1603 10.0895 19.2474 10.5338C20.3345 10.9781 21.2606 11.7456 21.9048 12.7554C22.5491 13.7248 22.9114 14.8962 22.9114 16.0676C22.9114 17.643 22.2672 19.1779 21.1801 20.3089C20.0929 21.4803 18.5629 22.0862 17.0329 22.0862Z" fill="#666666"/>
</g>
<defs>
<clipPath id="clip0_395_36">
<rect width="58.4636" height="22.2162" fill="white" transform="translate(6 5)"/>
</clipPath>
</defs>
</svg>
