<svg width="105" height="32" viewBox="0 0 105 32" fill="none" xmlns="http://www.w3.org/2000/svg">
<g clip-path="url(#clip0_398_144)">
<g clip-path="url(#clip1_398_144)">
<path d="M29.6506 13.6902C29.9729 12.4826 29.8398 11.5587 29.2509 10.9184C28.6621 10.278 27.6326 9.95574 26.1628 9.95145H20.5303L17.1348 22.691H19.8618L21.235 17.5342H23.0359C23.3654 17.5177 23.6937 17.5849 23.9901 17.7297C24.1104 17.805 24.2107 17.9081 24.2825 18.0305C24.3544 18.1528 24.3956 18.2906 24.4027 18.4324L24.8948 22.691H27.8175L27.3404 18.7353C27.2459 17.8522 26.8397 17.3322 26.1349 17.1754C26.9877 16.9401 27.7659 16.4903 28.3956 15.8689C29.004 15.2701 29.4379 14.5169 29.6506 13.6902ZM27.0396 13.7353C26.922 14.2576 26.6021 14.712 26.1499 14.9987C25.72 15.2695 25.0926 15.4027 24.2952 15.4027H21.7638L22.6534 12.0744H25.1871C25.9822 12.0744 26.5281 12.2097 26.829 12.4783C27.1298 12.7469 27.1943 13.1723 27.0396 13.7353Z" fill="#666666"/>
<path d="M37.5253 13.5849L37.1792 14.8741C37.035 14.4134 36.73 14.0198 36.3196 13.7654C35.841 13.4782 35.2893 13.3363 34.7315 13.3571C33.949 13.3573 33.1801 13.5618 32.5009 13.9502C31.7615 14.3741 31.123 14.9532 30.6291 15.6476C30.0847 16.3984 29.686 17.2446 29.4535 18.1422C29.2097 18.9412 29.1581 19.7864 29.3031 20.6089C29.4138 21.2587 29.7615 21.8443 30.2787 22.2527C30.8411 22.6547 31.5223 22.8561 32.2129 22.8243C32.8296 22.8257 33.4392 22.6937 34 22.4374C34.5609 22.1811 35.0596 21.8066 35.4622 21.3395L35.1054 22.6846H37.7637L40.1878 13.5849H37.5253ZM36.3175 18.0972C36.1531 18.8381 35.7872 19.5192 35.2602 20.0654C35.0333 20.2875 34.7643 20.4622 34.4692 20.5796C34.174 20.6968 33.8585 20.7544 33.541 20.7486C32.864 20.7486 32.4084 20.5338 32.1634 20.0761C31.9185 19.6185 31.912 18.9803 32.1356 18.1422C32.3055 17.3947 32.6771 16.7081 33.21 16.1569C33.4377 15.9281 33.7087 15.7469 34.0073 15.6241C34.3058 15.5012 34.6257 15.4391 34.9486 15.4414C35.6105 15.4414 36.0618 15.6713 36.2938 16.1289C36.526 16.5866 36.5496 17.2334 36.3218 18.095L36.3175 18.0972Z" fill="#666666"/>
<path d="M49.671 13.5913H42.0141L41.4489 15.7142H45.906L40.0456 20.826L39.5449 22.7018H47.4532L48.0184 20.5789H43.2369L49.194 15.3941L49.671 13.5913Z" fill="#666666"/>
<path d="M58.0451 13.9244C57.3341 13.5181 56.5231 13.3201 55.7048 13.3528C54.7819 13.3448 53.8684 13.54 53.0294 13.9244C52.2132 14.3049 51.4961 14.8689 50.9341 15.5724C50.347 16.3104 49.923 17.1642 49.6898 18.0778C49.4389 18.8903 49.4079 19.7547 49.5995 20.5831C49.7754 21.2708 50.2125 21.8628 50.818 22.2333C51.4341 22.613 52.222 22.8028 53.1819 22.8028C54.095 22.8108 54.9985 22.6163 55.8274 22.2333C56.641 21.8528 57.3547 21.2878 57.9119 20.5831C58.5001 19.8457 58.9249 18.9917 59.1583 18.0778C59.4096 17.2653 59.44 16.4006 59.2465 15.5724C59.0772 14.887 58.6459 14.2953 58.0451 13.9244ZM56.4935 18.0735C56.255 18.9673 55.9047 19.6377 55.4319 20.0804C54.9757 20.5149 54.3664 20.752 53.7363 20.74C52.3467 20.74 51.8889 19.8512 52.3631 18.0735C52.5966 17.1911 52.9549 16.5257 53.4377 16.0774C53.8997 15.6354 54.5175 15.3937 55.1568 15.4048C55.8188 15.4048 56.27 15.6197 56.5021 16.0774C56.7343 16.535 56.7277 17.1904 56.4935 18.0735Z" fill="#666666"/>
<path d="M86.9928 13.5849L86.6468 14.8741C86.5027 14.4133 86.1976 14.0198 85.7872 13.7654C85.3095 13.4756 84.7576 13.3314 84.1992 13.3507C83.4153 13.3524 82.6456 13.559 81.9664 13.9502C81.2264 14.374 80.5871 14.9531 80.0924 15.6476C79.5489 16.3989 79.1503 17.2449 78.9168 18.1422C78.6751 18.9415 78.6236 19.7862 78.7665 20.6089C78.8772 21.2587 79.2248 21.8443 79.7422 22.2527C80.3118 22.658 81.0016 22.8594 81.6998 22.8243C82.3027 22.822 82.8983 22.6916 83.447 22.4418C84.0132 22.1877 84.5159 21.8113 84.9191 21.3395L84.5623 22.6846H87.2206L89.6469 13.5849H86.9928ZM85.7787 18.0972C85.615 18.8378 85.2499 19.519 84.7234 20.0654C84.4961 20.2868 84.2271 20.4611 83.932 20.5784C83.6371 20.6957 83.3217 20.7535 83.0043 20.7486C82.3252 20.7486 81.8696 20.5337 81.6246 20.076C81.3796 19.6185 81.3754 18.9803 81.5967 18.1422C81.7675 17.3951 82.1391 16.7086 82.6712 16.1569C82.8994 15.9282 83.1709 15.7471 83.4696 15.6243C83.7685 15.5015 84.0888 15.4393 84.4119 15.4413C85.0738 15.4413 85.5222 15.6705 85.7572 16.1289C86.0065 16.5737 86.0129 17.2333 85.7787 18.095V18.0972Z" fill="#666666"/>
<path d="M67.5078 16.0344L68.1869 13.557C67.9005 13.4274 67.5878 13.3663 67.2736 13.3786C66.6593 13.3793 66.0555 13.5377 65.52 13.8385C65.0316 14.106 64.6077 14.4771 64.2779 14.9257L64.6281 13.5914H61.972L59.5264 22.691H62.2212L63.4871 17.9403C63.6354 17.3064 63.9825 16.7365 64.4778 16.3137C64.987 15.916 65.6198 15.7099 66.2657 15.7315C66.6983 15.7296 67.1247 15.8337 67.5078 16.0344Z" fill="#666666"/>
<path d="M76.8997 13.9695C76.3499 13.5493 75.6699 13.3356 74.9785 13.3657C74.3058 13.3665 73.6429 13.527 73.0444 13.8341C72.4448 14.129 71.9278 14.5683 71.5401 15.1126L71.5509 15.0503L72.0043 13.5913H69.3611L68.6862 16.1203C68.6862 16.1483 68.6712 16.1783 68.6648 16.2063L65.8926 26.6274H68.6003L69.9993 21.376C70.133 21.8393 70.4412 22.2329 70.8589 22.474C71.3437 22.7524 71.8969 22.8895 72.4557 22.8693C73.2405 22.8715 74.0135 22.6765 74.7035 22.3021C75.4378 21.8974 76.0716 21.3327 76.5581 20.6497C77.0932 19.9028 77.4845 19.0625 77.7121 18.1724C77.9577 17.3615 78.0136 16.505 77.8754 15.6691C77.7623 15.0047 77.4164 14.4022 76.8997 13.9695ZM74.985 18.1294C74.8198 18.8586 74.4562 19.5278 73.9341 20.0632C73.4721 20.505 72.8541 20.746 72.2149 20.7336C71.5487 20.7336 71.0975 20.5036 70.8589 20.0503C70.6204 19.5969 70.6074 18.9437 70.8417 18.0821C71.0091 17.3354 71.3812 16.6502 71.9162 16.1031C72.1435 15.8812 72.4123 15.7062 72.7073 15.5883C73.0024 15.4703 73.3178 15.4116 73.6354 15.4156C74.2801 15.4156 74.7293 15.6562 74.9635 16.1311C75.1977 16.6059 75.2127 17.2785 74.985 18.1294Z" fill="#666666"/>
<path d="M100.949 13.2883H98.1551L97.7254 14.1865C97.691 14.2316 97.6587 14.2767 97.6201 14.3326L97.5749 14.4056L94.1365 19.2144L93.4231 13.5913H90.6036L92.0369 22.2161L88.8672 26.6274H91.5813L92.3657 25.5079C92.3894 25.4735 92.413 25.4456 92.4345 25.4091L93.3522 24.1005L93.3822 24.0662L97.4804 18.2196L100.949 13.2883Z" fill="#666666"/>
<path d="M10.2326 11.4061L9.41602 14.3799L14.0235 11.3911L11.0149 22.691H14.0686L18.5149 6L10.2326 11.4061Z" fill="#666666"/>
<path d="M5.26791 17.9381L4 22.691H10.2644L12.8281 13.0219L5.26791 17.9381Z" fill="#666666"/>
</g>
</g>
<defs>
<clipPath id="clip0_398_144">
<rect width="97" height="30" fill="white" transform="translate(4 1)"/>
</clipPath>
<clipPath id="clip1_398_144">
<rect width="97.0635" height="20.6274" fill="white" transform="translate(4 6)"/>
</clipPath>
</defs>
</svg>
