<svg width="62" height="32" viewBox="0 0 62 32" fill="none" xmlns="http://www.w3.org/2000/svg">
<g clip-path="url(#clip0_398_104)">
<path d="M45.3197 15.6764L49.6916 23.9079H54.0001L45.3197 7.60379L36.6709 23.8761H40.9478L45.3197 15.6764Z" fill="#666666"/>
<path d="M31.0952 20.0622V7.57199H27.3252V23.8761H34.6434L36.6709 20.0622H31.0952Z" fill="#666666"/>
<path d="M16.6812 6.99997C14.9705 6.99997 13.2914 7.50848 11.8658 8.46193C10.4402 9.41539 9.33138 10.782 8.66609 12.3711C8.0008 13.992 7.8424 15.74 8.1592 17.4244C8.50769 19.1406 9.33138 20.6979 10.5352 21.9056C11.7391 23.1134 13.2914 23.9715 14.9705 24.2893C16.6496 24.6389 18.392 24.4482 19.976 23.7808C21.56 23.1134 22.9223 22.001 23.8727 20.5708C24.8231 19.1406 25.33 17.4562 25.33 15.7082C25.33 13.3881 24.4113 11.1634 22.7956 9.54252C21.1799 7.92164 18.9622 6.99997 16.6812 6.99997ZM16.6812 20.4437C15.7625 20.4437 14.8438 20.1576 14.0834 19.6491C13.3231 19.1406 12.7212 18.4096 12.3727 17.5515C12.0242 16.6934 11.9292 15.74 12.0876 14.8183C12.2777 13.8966 12.7212 13.0703 13.3548 12.4029C14.0201 11.7355 14.8438 11.2905 15.7308 11.0998C16.6496 10.9091 17.5683 11.0045 18.4237 11.3541C19.279 11.7037 20.0077 12.3075 20.5146 13.1021C21.0215 13.8648 21.3066 14.7865 21.3066 15.7082C21.3066 16.9477 20.7997 18.1554 19.9443 19.0453C19.089 19.967 17.8851 20.4437 16.6812 20.4437Z" fill="#666666"/>
</g>
<defs>
<clipPath id="clip0_398_104">
<rect width="46" height="17.48" fill="white" transform="translate(8 7)"/>
</clipPath>
</defs>
</svg>
