<svg width="105" height="32" viewBox="0 0 105 32" fill="none" xmlns="http://www.w3.org/2000/svg">
<g clip-path="url(#clip0_398_160)">
<path d="M39.3087 17.2467L38.7632 18.7907H38.7177C38.6268 18.4426 38.4601 17.9128 38.1873 17.277L35.2626 9.93562H32.3984V21.6365H34.2927V14.4161C34.2927 13.962 34.2927 13.4474 34.2775 12.8116C34.2624 12.4938 34.2321 12.2516 34.2169 12.0699H34.2624C34.3533 12.524 34.4594 12.857 34.5352 13.069L38.0509 21.6062H39.3845L42.8699 12.9933C42.9457 12.7965 43.0215 12.4029 43.0973 12.0699H43.1427C43.0973 12.9327 43.0669 13.7047 43.0518 14.174V21.591H45.0673V9.90535H42.3092L39.3087 17.2467ZM46.9767 13.2052H48.9468V21.591H46.9767V13.2052ZM47.9769 9.66315C47.6435 9.66315 47.3707 9.78425 47.1434 9.99617C46.9161 10.2081 46.7949 10.4805 46.7949 10.8136C46.7949 11.1314 46.9161 11.4039 47.1434 11.6158C47.3707 11.8277 47.6435 11.9337 47.9769 11.9337C48.3103 11.9337 48.5982 11.8126 48.8104 11.6158C49.0377 11.4039 49.1589 11.1314 49.1589 10.8136C49.1589 10.4957 49.0377 10.2232 48.8104 9.99617C48.6134 9.78425 48.3254 9.66315 47.9769 9.66315ZM55.9328 13.1295C55.5691 13.0538 55.1903 13.0084 54.8266 13.0084C53.9325 13.0084 53.1141 13.2052 52.4322 13.5988C51.7503 13.9923 51.2047 14.5372 50.8562 15.2184C50.4925 15.9147 50.3106 16.717 50.3106 17.6403C50.3106 18.4426 50.4925 19.154 50.841 19.8049C51.1896 20.4406 51.6745 20.9553 52.3261 21.3034C52.9474 21.6516 53.6748 21.8332 54.4932 21.8332C55.4327 21.8332 56.2359 21.6365 56.8724 21.2732L56.8875 21.258V19.4416L56.8118 19.5021C56.5238 19.7141 56.1904 19.8957 55.857 20.0017C55.5085 20.1228 55.1903 20.1833 54.9175 20.1833C54.1295 20.1833 53.5082 19.9563 53.0687 19.4567C52.6141 18.9724 52.3867 18.3063 52.3867 17.4738C52.3867 16.611 52.6141 15.9298 53.0838 15.4303C53.5536 14.9308 54.1749 14.6735 54.9326 14.6735C55.5691 14.6735 56.2207 14.8854 56.8118 15.3092L56.8875 15.3698V13.4474L56.8724 13.4322C56.6148 13.3263 56.3268 13.2052 55.9328 13.1295ZM62.4339 13.069C61.949 13.069 61.4944 13.2203 61.1004 13.5382C60.767 13.8107 60.5397 14.2042 60.3427 14.6735H60.3275V13.2052H58.3575V21.591H60.3275V17.3073C60.3275 16.5807 60.4791 15.9752 60.8124 15.5363C61.1458 15.0822 61.5702 14.8551 62.0854 14.8551C62.2672 14.8551 62.4491 14.9005 62.6764 14.9308C62.8886 14.9913 63.0401 15.0519 63.1462 15.1276L63.222 15.1881V13.2203L63.1765 13.2052C63.0401 13.1144 62.7673 13.069 62.4339 13.069ZM67.7985 13.0235C66.4195 13.0235 65.3132 13.4322 64.5404 14.2345C63.7524 15.0368 63.3735 16.1418 63.3735 17.5343C63.3735 18.8361 63.7675 19.8957 64.5252 20.6677C65.2829 21.4245 66.3134 21.8181 67.6015 21.8181C68.9502 21.8181 70.0262 21.4094 70.799 20.592C71.587 19.7746 71.9659 18.6848 71.9659 17.3376C71.9659 16.0055 71.6022 14.9459 70.8596 14.174C70.1474 13.402 69.1018 13.0235 67.7985 13.0235ZM69.3745 19.4719C69.0108 19.9411 68.435 20.1682 67.7227 20.1682C67.0105 20.1682 66.4346 19.9411 66.0255 19.4416C65.6163 18.9724 65.4193 18.2912 65.4193 17.4284C65.4193 16.5353 65.6315 15.8542 66.0255 15.3698C66.4346 14.8854 66.9953 14.6432 67.7076 14.6432C68.4047 14.6432 68.9502 14.8703 69.3442 15.3395C69.7382 15.8087 69.9504 16.4899 69.9504 17.383C69.9201 18.2912 69.7534 19.0026 69.3745 19.4719ZM76.3606 16.6867C75.7393 16.4294 75.3453 16.2326 75.1634 16.0661C75.0119 15.9147 74.9361 15.7028 74.9361 15.4303C74.9361 15.2033 75.027 14.9762 75.2543 14.8248C75.4817 14.6735 75.7393 14.5978 76.1181 14.5978C76.4515 14.5978 76.8001 14.6583 77.1335 14.7492C77.4668 14.84 77.7699 14.9762 78.0124 15.1579L78.0882 15.2184V13.3717L78.0427 13.3566C77.8154 13.2657 77.5123 13.1749 77.1486 13.0992C76.7849 13.0387 76.4515 13.0084 76.1787 13.0084C75.2392 13.0084 74.4663 13.2355 73.8602 13.735C73.254 14.2042 72.9661 14.84 72.9661 15.5817C72.9661 15.9752 73.0267 16.3234 73.1631 16.611C73.2995 16.8986 73.4965 17.1711 73.7692 17.3981C74.042 17.61 74.436 17.8522 74.9816 18.0793C75.4362 18.2761 75.7847 18.4274 75.9969 18.5485C76.209 18.6696 76.3454 18.8058 76.4515 18.9118C76.5273 19.0329 76.5728 19.1843 76.5728 19.3811C76.5728 19.9411 76.1484 20.2136 75.2846 20.2136C74.9513 20.2136 74.6027 20.153 74.1935 20.0168C73.7844 19.8806 73.4055 19.6838 73.0873 19.4567L73.0115 19.3962V21.3186L73.057 21.3337C73.3449 21.4699 73.6935 21.5608 74.1178 21.6667C74.5421 21.7424 74.9209 21.803 75.2543 21.803C76.2697 21.803 77.1031 21.5759 77.6942 21.0764C78.3003 20.592 78.6186 19.9714 78.6186 19.1691C78.6186 18.6091 78.467 18.1096 78.1336 17.7311C77.6942 17.3678 77.1486 16.9894 76.3606 16.6867ZM83.8164 13.0235C82.4374 13.0235 81.3311 13.4322 80.5583 14.2345C79.7854 15.0368 79.3914 16.1418 79.3914 17.5343C79.3914 18.8361 79.7854 19.8957 80.5431 20.6677C81.3008 21.4245 82.3313 21.8181 83.6194 21.8181C84.9681 21.8181 86.0441 21.4094 86.8169 20.592C87.605 19.7746 87.9838 18.6848 87.9838 17.3376C87.9838 16.0055 87.6201 14.9459 86.8776 14.174C86.1653 13.402 85.1197 13.0235 83.8164 13.0235ZM85.3773 19.4719C85.0136 19.9411 84.4377 20.1682 83.7255 20.1682C82.9981 20.1682 82.4374 19.9411 82.0282 19.4416C81.6191 18.9724 81.4221 18.2912 81.4221 17.4284C81.4221 16.5353 81.6342 15.8542 82.0282 15.3698C82.4374 14.8854 82.9981 14.6432 83.7104 14.6432C84.3923 14.6432 84.953 14.8703 85.347 15.3395C85.741 15.8087 85.9532 16.4899 85.9532 17.383C85.9532 18.2912 85.7562 19.0026 85.3773 19.4719ZM98.5159 14.8248V13.2052H96.5307V10.7227L96.4701 10.7379L94.591 11.2979L94.5456 11.3131V13.2052H91.5753V12.1456C91.5753 11.6612 91.6966 11.2828 91.9087 11.0406C92.1209 10.7984 92.4391 10.6773 92.8331 10.6773C93.1059 10.6773 93.3938 10.7379 93.7121 10.8741L93.7879 10.9195V9.20905L93.7424 9.19391C93.4696 9.10309 93.1059 9.04254 92.6361 9.04254C92.0451 9.04254 91.5299 9.17877 91.0601 9.40583C90.5903 9.66315 90.2418 10.0113 89.9842 10.4805C89.7265 10.9347 89.5902 11.4493 89.5902 12.0396V13.2052H88.2111V14.8097H89.5902V21.591H91.5753V14.8248H94.5456V19.1389C94.5456 20.9099 95.379 21.803 97.046 21.803C97.3188 21.803 97.6067 21.7575 97.8795 21.7121C98.1674 21.6516 98.3796 21.5759 98.5008 21.5154L98.5159 21.5002V19.8806L98.4402 19.9411C98.3189 20.0168 98.2129 20.0773 98.031 20.1228C97.8795 20.1682 97.7431 20.1833 97.637 20.1833C97.243 20.1833 96.9702 20.0925 96.7732 19.8654C96.5914 19.6535 96.5004 19.3054 96.5004 18.7907V14.8248H98.5159Z" fill="#666666"/>
<path d="M7 6H16.2895V15.2789H7V6Z" fill="#666666"/>
<path d="M17.2598 6H26.5493V15.2789H17.2598V6Z" fill="#666666"/>
<path d="M7 16.2477H16.2895V25.5266H7V16.2477Z" fill="#666666"/>
<path d="M17.2598 16.2477H26.5493V25.5266H17.2598V16.2477Z" fill="#666666"/>
</g>
<defs>
<clipPath id="clip0_398_160">
<rect width="91.531" height="19.5266" fill="white" transform="translate(7 6)"/>
</clipPath>
</defs>
</svg>
