<svg width="85" height="32" viewBox="0 0 85 32" fill="none" xmlns="http://www.w3.org/2000/svg">
<g clip-path="url(#clip0_390_359)">
<path d="M14.869 12.927V15.3001H20.5958C20.4438 16.6128 19.9877 17.6226 19.2782 18.279C18.4673 19.0869 17.1496 19.9957 14.869 19.9957C11.3721 19.9957 8.63536 17.1682 8.63536 13.6844C8.63536 10.2006 11.3214 7.37311 14.869 7.37311C16.7442 7.37311 18.1632 8.13046 19.1768 9.08978L20.8492 7.4236C19.4302 6.06036 17.5044 5.00006 14.869 5.00006C10.0544 5.00006 6 8.88782 6 13.6844C6 18.481 10.0544 22.3687 14.869 22.3687C17.4537 22.3687 19.4302 21.5104 20.9506 19.9452C22.5217 18.38 23.0285 16.1584 23.0285 14.3913C23.0285 13.8359 22.9778 13.331 22.9271 12.927H14.869Z" fill="#666666"/>
<path d="M30.1244 10.9579C27.0329 10.9579 24.4482 13.331 24.4482 16.5623C24.4482 19.7937 26.9822 22.1668 30.1244 22.1668C33.2666 22.1668 35.8006 19.8442 35.8006 16.6128C35.8006 13.331 33.2666 10.9579 30.1244 10.9579ZM30.1244 19.9957C28.4013 19.9957 26.9316 18.582 26.9316 16.6128C26.9316 14.5932 28.4013 13.23 30.1244 13.23C31.8475 13.23 33.3172 14.5932 33.3172 16.6128C33.3172 18.582 31.8475 19.9957 30.1244 19.9957Z" fill="#666666"/>
<path d="M57.8456 12.2202H57.7442C57.1868 11.5638 56.1225 10.9579 54.7541 10.9579C51.916 10.9579 49.4834 13.3815 49.4834 16.5623C49.4834 19.6927 51.916 22.1668 54.7541 22.1668C56.1225 22.1668 57.1868 21.5609 57.7442 20.9045H57.8456V21.7124C57.8456 23.833 56.68 24.9942 54.8555 24.9942C53.3351 24.9942 52.4228 23.9339 52.0174 22.9746L49.8888 23.8834C50.497 25.3477 52.1694 27.2158 54.9062 27.2158C57.7949 27.2158 60.2782 25.4991 60.2782 21.3589V11.2609H57.947V12.2202H57.8456ZM55.0075 19.9957C53.2844 19.9957 52.0174 18.5315 52.0174 16.6128C52.0174 14.6437 53.3351 13.23 55.0075 13.23C56.68 13.23 57.9976 14.6942 57.9976 16.6633C58.0483 18.582 56.7306 19.9957 55.0075 19.9957Z" fill="#666666"/>
<path d="M42.7435 10.9579C39.6521 10.9579 37.0674 13.331 37.0674 16.5623C37.0674 19.7937 39.6014 22.1668 42.7435 22.1668C45.8857 22.1668 48.4197 19.8442 48.4197 16.6128C48.4197 13.331 45.8857 10.9579 42.7435 10.9579ZM42.7435 19.9957C41.0204 19.9957 39.5507 18.582 39.5507 16.6128C39.5507 14.5932 41.0204 13.23 42.7435 13.23C44.4667 13.23 45.9364 14.5932 45.9364 16.6128C45.9364 18.582 44.4667 19.9957 42.7435 19.9957Z" fill="#666666"/>
<path d="M62.1533 5.2525H64.586V22.2173H62.1533V5.2525Z" fill="#666666"/>
<path d="M72.0865 19.9957C70.8195 19.9957 69.958 19.4403 69.3498 18.279L76.9011 15.1991L76.6477 14.5427C76.1916 13.2805 74.7219 10.9579 71.8331 10.9579C68.9444 10.9579 66.5117 13.23 66.5117 16.5623C66.5117 19.6927 68.8937 22.1668 72.0865 22.1668C74.6712 22.1668 76.1409 20.6016 76.7998 19.6927L74.8739 18.4305C74.2151 19.3898 73.3535 19.9957 72.0865 19.9957ZM71.9345 13.0785C72.9481 13.0785 73.8096 13.5834 74.063 14.2903L68.995 16.4109C68.9444 14.0883 70.6675 13.0785 71.9345 13.0785Z" fill="#666666"/>
</g>
<defs>
<clipPath id="clip0_390_359">
<rect width="70.9013" height="22.2157" fill="white" transform="translate(6 5)"/>
</clipPath>
</defs>
</svg>
