<svg width="78" height="32" viewBox="0 0 78 32" fill="none" xmlns="http://www.w3.org/2000/svg">
<g clip-path="url(#clip0_390_369)">
<path d="M9.24116 16.7785C8.59925 16.7785 8.0342 16.6383 7.54599 16.3578C7.05778 16.0684 6.67806 15.6703 6.40684 15.1637C6.13561 14.6481 6 14.0556 6 13.3861C6 12.5809 6.1989 11.8753 6.5967 11.2692C7.00354 10.6631 7.57763 10.1972 8.31898 9.87149C9.06938 9.54588 9.94635 9.38304 10.9499 9.38304C11.411 9.38304 11.7862 9.41467 12.0755 9.47802V9.19307C12.0755 8.50551 11.9489 7.99438 11.6958 7.65966C11.4426 7.31589 11.0584 7.14401 10.543 7.14401C9.71128 7.14401 9.17787 7.58277 8.94281 8.46027C8.87048 8.71358 8.72131 8.82214 8.49529 8.78595L6.65095 8.46027C6.51533 8.43313 6.4204 8.37433 6.36615 8.28387C6.32095 8.1934 6.31643 8.07128 6.3526 7.91749C6.58766 6.99474 7.08492 6.28007 7.84434 5.77347C8.61282 5.25782 9.57568 5 10.7329 5C12.1071 5 13.1513 5.37091 13.8656 6.11272C14.5889 6.85453 14.9505 7.93558 14.9505 9.35591V16.1815C14.9505 16.281 14.9144 16.3669 14.842 16.4392C14.7787 16.5026 14.6973 16.5342 14.5979 16.5342H12.8349C12.6179 16.5342 12.4823 16.4166 12.4281 16.1815L12.1568 14.9059H12.0484C11.8043 15.503 11.4381 15.9643 10.9499 16.29C10.4707 16.6157 9.90115 16.7785 9.24116 16.7785ZM8.95637 13.0604C8.95637 13.5399 9.07842 13.9243 9.32252 14.2138C9.57567 14.4943 9.9147 14.6345 10.3396 14.6345C10.9002 14.6345 11.3296 14.3857 11.628 13.8881C11.9263 13.3816 12.0755 12.6578 12.0755 11.717V10.9978C11.8223 10.9526 11.5827 10.9299 11.3567 10.9299C10.6154 10.9299 10.0277 11.1244 9.59375 11.5135C9.16883 11.8934 8.95637 12.4091 8.95637 13.0604ZM16.6321 5.59706C16.6321 5.49755 16.6638 5.41614 16.727 5.35281C16.7993 5.28044 16.8852 5.24425 16.9847 5.24425H18.7748C18.8742 5.24425 18.9556 5.27591 19.0188 5.33924C19.0912 5.40256 19.1364 5.4885 19.1545 5.59706L19.4257 6.92689H19.5342C19.7783 6.30269 20.1264 5.82775 20.5785 5.50208C21.0395 5.16735 21.582 5 22.2058 5C22.8748 5 23.4489 5.1764 23.928 5.52922C24.4163 5.88203 24.7915 6.38411 25.0537 7.03545H25.1622C25.56 6.34792 26.0075 5.8368 26.5048 5.50208C27.002 5.16735 27.558 5 28.1728 5C28.8418 5 29.4204 5.18092 29.9086 5.54278C30.4059 5.90465 30.7856 6.42029 31.0478 7.08973C31.31 7.75917 31.4411 8.55074 31.4411 9.46442V16.1815C31.4411 16.281 31.4049 16.3669 31.3326 16.4392C31.2692 16.5026 31.1879 16.5342 31.0885 16.5342H28.9187C28.8192 16.5342 28.7333 16.5026 28.661 16.4392C28.5977 16.3669 28.5661 16.281 28.5661 16.1815V9.68152C28.5661 9.02112 28.4395 8.51455 28.1864 8.16174C27.9332 7.80893 27.5671 7.63252 27.0878 7.63252C26.5635 7.63252 26.1612 7.84059 25.8809 8.25673C25.6097 8.67286 25.4741 9.27445 25.4741 10.0615V16.1815C25.4741 16.281 25.4379 16.3669 25.3656 16.4392C25.3023 16.5026 25.2209 16.5342 25.1215 16.5342H22.9517C22.8522 16.5342 22.7663 16.5026 22.694 16.4392C22.6307 16.3669 22.5991 16.281 22.5991 16.1815V9.68152C22.5991 9.02112 22.4725 8.51455 22.2193 8.16174C21.9662 7.80893 21.6001 7.63252 21.1209 7.63252C20.5965 7.63252 20.1942 7.84059 19.9139 8.25673C19.6427 8.67286 19.5071 9.27445 19.5071 10.0615V16.1815C19.5071 16.281 19.471 16.3669 19.3986 16.4392C19.3353 16.5026 19.2539 16.5342 19.1545 16.5342H16.9847C16.8852 16.5342 16.7993 16.5026 16.727 16.4392C16.6638 16.3669 16.6321 16.281 16.6321 16.1815V5.59706ZM32.8514 13.3861C32.8514 12.5809 33.0504 11.8753 33.4482 11.2692C33.855 10.6631 34.4291 10.1972 35.1705 9.87149C35.9208 9.54588 36.7978 9.38304 37.8013 9.38304C38.2624 9.38304 38.6376 9.41467 38.9269 9.47802V9.19307C38.9269 8.50551 38.8003 7.99438 38.5472 7.65966C38.2941 7.31589 37.9098 7.14401 37.3945 7.14401C36.5628 7.14401 36.0293 7.58277 35.7942 8.46027C35.7219 8.71358 35.5728 8.82214 35.3467 8.78595L33.5024 8.46027C33.3667 8.43313 33.2718 8.37433 33.2176 8.28387C33.1724 8.1934 33.1679 8.07128 33.204 7.91749C33.4391 6.99474 33.9363 6.28007 34.6958 5.77347C35.4642 5.25782 36.4271 5 37.5844 5C38.9585 5 40.0028 5.37091 40.717 6.11272C41.4403 6.85453 41.802 7.93558 41.802 9.35591V16.1815C41.802 16.281 41.7657 16.3669 41.6934 16.4392C41.6301 16.5026 41.5488 16.5342 41.4494 16.5342H39.6864C39.4694 16.5342 39.3338 16.4166 39.2795 16.1815L39.0083 14.9059H38.8998C38.6557 15.503 38.2896 15.9643 37.8013 16.29C37.3222 16.6157 36.7526 16.7785 36.0926 16.7785C35.4326 16.7785 34.8857 16.6383 34.3974 16.3578C33.9092 16.0684 33.5295 15.6703 33.2583 15.1637C32.987 14.6481 32.8514 14.0556 32.8514 13.3861ZM35.8078 13.0604C35.8078 13.5399 35.9299 13.9243 36.174 14.2138C36.4271 14.4943 36.7661 14.6345 37.191 14.6345C37.7516 14.6345 38.181 14.3857 38.4794 13.8881C38.7777 13.3816 38.9269 12.6578 38.9269 11.717V10.9978C38.6738 10.9526 38.4342 10.9299 38.2081 10.9299C37.4668 10.9299 36.8792 11.1244 36.4452 11.5135C36.0203 11.8934 35.8078 12.4091 35.8078 13.0604ZM43.2666 14.5395C43.2666 14.3405 43.3208 14.1686 43.4293 14.0238L48.0673 7.52396H43.7276C43.6282 7.52396 43.5423 7.4923 43.4699 7.42898C43.4067 7.3566 43.375 7.27066 43.375 7.17115V5.59706C43.375 5.49755 43.4067 5.41614 43.4699 5.35281C43.5423 5.28044 43.6282 5.24425 43.7276 5.24425H50.8609C50.9604 5.24425 51.0417 5.28044 51.105 5.35281C51.1773 5.41614 51.2135 5.49755 51.2135 5.59706V7.239C51.2135 7.43802 51.1592 7.6099 51.0507 7.75465L46.8467 13.5353C47.0999 13.4902 47.3576 13.4675 47.6197 13.4675C48.2707 13.4675 48.8674 13.5263 49.4098 13.6439C49.9613 13.7525 50.5309 13.9334 51.1185 14.1867C51.3265 14.2772 51.4304 14.4309 51.4304 14.6481V16.2086C51.4304 16.3533 51.3853 16.4528 51.2949 16.5071C51.2045 16.5523 51.0914 16.5478 50.9558 16.4936C50.2778 16.2402 49.6765 16.0639 49.1522 15.9643C48.6368 15.8558 48.0718 15.8014 47.457 15.8014C46.8422 15.8014 46.2545 15.8558 45.6669 15.9643C45.0883 16.0729 44.4464 16.2492 43.7412 16.4936C43.6056 16.5388 43.4925 16.5388 43.4021 16.4936C43.3118 16.4392 43.2666 16.3442 43.2666 16.2086V14.5395ZM52.0272 10.8892C52.0272 9.7856 52.2396 8.78594 52.6646 7.89034C53.0895 6.9857 53.6726 6.28007 54.414 5.77347C55.1644 5.25782 55.9961 5 56.9092 5C57.8224 5 58.6632 5.25782 59.4045 5.77347C60.1549 6.28007 60.7426 6.9857 61.1675 7.89034C61.6014 8.78594 61.8185 9.7856 61.8185 10.8892C61.8185 11.9929 61.6014 12.9971 61.1675 13.9017C60.7426 14.7973 60.1549 15.503 59.4045 16.0186C58.6632 16.5252 57.8314 16.7785 56.9092 16.7785C55.987 16.7785 55.1644 16.5252 54.414 16.0186C53.6726 15.503 53.0895 14.7973 52.6646 13.9017C52.2396 12.9971 52.0272 11.9929 52.0272 10.8892ZM55.0106 10.8892C55.0106 12.0381 55.1734 12.9247 55.4989 13.5489C55.8244 14.1641 56.2944 14.4716 56.9092 14.4716C57.5241 14.4716 57.9987 14.1641 58.3332 13.5489C58.6677 12.9247 58.8349 12.0381 58.8349 10.8892C58.8349 9.74036 58.6677 8.85832 58.3332 8.24316C57.9987 7.61895 57.5241 7.30685 56.9092 7.30685C56.2944 7.30685 55.8244 7.61895 55.4989 8.24316C55.1734 8.85832 55.0106 9.74036 55.0106 10.8892ZM63.283 5.59706C63.283 5.49755 63.3147 5.41614 63.378 5.35281C63.4504 5.28044 63.5362 5.24425 63.6356 5.24425H65.4257C65.5252 5.24425 65.6066 5.27591 65.6699 5.33924C65.7422 5.40256 65.7874 5.4885 65.8054 5.59706L66.0767 6.92689H66.1852C66.4293 6.31174 66.7864 5.8368 67.2565 5.50208C67.7357 5.16735 68.2963 5 68.9381 5C69.6252 5 70.2174 5.18092 70.7147 5.54278C71.221 5.90465 71.6097 6.42029 71.881 7.08973C72.1522 7.75917 72.2878 8.55074 72.2878 9.46442V16.1815C72.2878 16.281 72.2516 16.3669 72.1793 16.4392C72.116 16.5026 72.0346 16.5342 71.9352 16.5342H69.7654C69.6659 16.5342 69.58 16.5026 69.5077 16.4392C69.4445 16.3669 69.4128 16.281 69.4128 16.1815V9.68152C69.4128 9.02112 69.2771 8.51455 69.006 8.16174C68.7347 7.80893 68.3505 7.63252 67.8532 7.63252C67.3018 7.63252 66.8813 7.84059 66.5921 8.25673C66.3027 8.67286 66.158 9.27445 66.158 10.0615V16.1815C66.158 16.281 66.1219 16.3669 66.0496 16.4392C65.9863 16.5026 65.905 16.5342 65.8054 16.5342H63.6356C63.5362 16.5342 63.4504 16.5026 63.378 16.4392C63.3147 16.3669 63.283 16.281 63.283 16.1815V5.59706Z" fill="#666666"/>
<path d="M13.5401 18.0944C13.3684 18.2301 13.3322 18.4563 13.4317 18.7729C13.5221 19.0534 13.7345 19.4016 14.069 19.8178C15.4161 21.4824 17.0209 22.8664 18.8833 23.9701C20.7457 25.0738 22.7393 25.888 24.8639 26.4126C26.9975 26.9464 29.1763 27.2133 31.4004 27.2133C34.2483 27.2133 36.9606 26.7972 39.5372 25.9648C42.1138 25.1416 44.2656 23.9836 45.9924 22.491C46.5981 21.9573 46.901 21.5321 46.901 21.2154C46.901 21.0978 46.8513 20.9802 46.7519 20.8626C46.6162 20.727 46.4535 20.6818 46.2636 20.727C46.0738 20.7721 45.8071 20.8852 45.4635 21.0662C43.809 21.9347 41.7929 22.6267 39.4152 23.1424C37.0465 23.6671 34.5738 23.9294 31.9971 23.9294C28.8057 23.9294 25.7227 23.4952 22.7483 22.6267C19.7738 21.7582 17.1384 20.4013 14.842 18.5558C14.5075 18.2935 14.2363 18.1261 14.0283 18.0537C13.8294 17.9813 13.6667 17.9949 13.5401 18.0944Z" fill="#666666"/>
<path d="M43.6734 18.7736C43.4835 18.9546 43.4338 19.1446 43.5242 19.3436C43.5875 19.4884 43.7096 19.5698 43.8904 19.5879C44.0712 19.615 44.3289 19.5969 44.6634 19.5336C45.2058 19.416 45.7709 19.3345 46.3585 19.2893C46.9462 19.2532 47.457 19.2622 47.891 19.3164C48.325 19.3798 48.5962 19.4884 48.7047 19.6421C48.8674 19.8864 48.8086 20.402 48.5284 21.1891C48.2572 21.9761 47.8865 22.7405 47.4163 23.4824C47.2355 23.7809 47.1271 24.0161 47.0909 24.188C47.0547 24.3599 47.0999 24.5046 47.2265 24.6222C47.3078 24.7036 47.3982 24.7443 47.4977 24.7443C47.7599 24.7443 48.1396 24.5136 48.6369 24.0523C49.5319 23.2743 50.1602 22.3516 50.5219 21.2841C50.7208 20.7322 50.8428 20.1533 50.888 19.5471C50.9332 18.9411 50.8654 18.5068 50.6846 18.2445C50.5128 17.9911 50.1331 17.783 49.5455 17.6203C48.9669 17.4574 48.3837 17.376 47.7961 17.376C46.6478 17.376 45.5584 17.6474 44.5278 18.1902C44.1481 18.3983 43.8633 18.5928 43.6734 18.7736Z" fill="#666666"/>
</g>
<defs>
<clipPath id="clip0_390_369">
<rect width="66.2878" height="22.2132" fill="white" transform="translate(6 5)"/>
</clipPath>
</defs>
</svg>
