<svg width="86" height="32" viewBox="0 0 86 32" fill="none" xmlns="http://www.w3.org/2000/svg">
<g clip-path="url(#clip0_394_331)">
<path d="M31.4921 17.7252L31.0268 19.0419H30.988C30.9105 18.745 30.7683 18.2932 30.5357 17.751L28.0413 11.4899H25.5986V21.4689H27.2142V15.3111C27.2142 14.9238 27.2142 14.4849 27.2012 13.9427C27.1883 13.6716 27.1625 13.465 27.1495 13.3101H27.1883C27.2659 13.6974 27.3563 13.9814 27.4209 14.1621L30.4194 21.4431H31.5567L34.5293 14.0976C34.5939 13.9298 34.6585 13.5941 34.7231 13.3101H34.7619C34.7231 14.0459 34.6973 14.7043 34.6844 15.1045V21.4302H36.4033V11.464H34.0511L31.4921 17.7252ZM38.0317 14.2783H39.7119V21.4302H38.0317V14.2783ZM38.8847 11.2575C38.6004 11.2575 38.3678 11.3608 38.1739 11.5415C37.98 11.7222 37.8766 11.9546 37.8766 12.2386C37.8766 12.5097 37.98 12.7421 38.1739 12.9228C38.3678 13.1035 38.6004 13.1939 38.8847 13.1939C39.1691 13.1939 39.4146 13.0906 39.5956 12.9228C39.7894 12.7421 39.8928 12.5097 39.8928 12.2386C39.8928 11.9675 39.7894 11.7351 39.5956 11.5415C39.4275 11.3608 39.182 11.2575 38.8847 11.2575ZM45.6699 14.2138C45.3598 14.1492 45.0366 14.1105 44.7265 14.1105C43.9639 14.1105 43.266 14.2783 42.6844 14.614C42.1028 14.9496 41.6376 15.4144 41.3403 15.9953C41.0301 16.5891 40.875 17.2733 40.875 18.0608C40.875 18.745 41.0301 19.3518 41.3274 19.9069C41.6247 20.4491 42.0382 20.888 42.594 21.1849C43.1239 21.4818 43.7442 21.6367 44.4421 21.6367C45.2434 21.6367 45.9284 21.4689 46.4712 21.1591L46.4842 21.1462V19.597L46.4195 19.6487C46.174 19.8294 45.8896 19.9843 45.6053 20.0747C45.3081 20.178 45.0366 20.2296 44.804 20.2296C44.132 20.2296 43.6021 20.036 43.2273 19.6099C42.8395 19.1968 42.6457 18.6288 42.6457 17.9188C42.6457 17.183 42.8395 16.602 43.2402 16.176C43.6408 15.75 44.1707 15.5305 44.8169 15.5305C45.3598 15.5305 45.9155 15.7113 46.4195 16.0727L46.4842 16.1244V14.4849L46.4712 14.472C46.2515 14.3816 46.006 14.2783 45.6699 14.2138ZM51.2144 14.1621C50.8008 14.1621 50.4131 14.2912 50.0771 14.5623C49.7928 14.7947 49.5989 15.1303 49.4309 15.5305H49.418V14.2783H47.7378V21.4302H49.418V17.7768C49.418 17.1571 49.5472 16.6408 49.8315 16.2664C50.1159 15.8791 50.4777 15.6855 50.9172 15.6855C51.0723 15.6855 51.2273 15.7242 51.4212 15.75C51.6021 15.8016 51.7314 15.8533 51.8219 15.9178L51.8865 15.9695V14.2912L51.8477 14.2783C51.7314 14.2009 51.4988 14.1621 51.2144 14.1621ZM55.7896 14.1234C54.6135 14.1234 53.67 14.472 53.0109 15.1562C52.3388 15.8404 52.0157 16.7828 52.0157 17.9704C52.0157 19.0807 52.3518 19.9843 52.998 20.6427C53.6442 21.2882 54.523 21.6238 55.6216 21.6238C56.7718 21.6238 57.6895 21.2753 58.3486 20.5782C59.0206 19.881 59.3438 18.9516 59.3438 17.8026C59.3438 16.6666 59.0336 15.7629 58.4003 15.1045C57.7928 14.4461 56.9011 14.1234 55.7896 14.1234ZM57.1337 19.6229C56.8235 20.023 56.3324 20.2167 55.725 20.2167C55.1175 20.2167 54.6264 20.023 54.2775 19.597C53.9285 19.1968 53.7605 18.6159 53.7605 17.8801C53.7605 17.1184 53.9414 16.5375 54.2775 16.1244C54.6264 15.7113 55.1046 15.5047 55.712 15.5047C56.3066 15.5047 56.7718 15.6984 57.1079 16.0986C57.4439 16.4988 57.6248 17.0797 57.6248 17.8413C57.599 18.6159 57.4568 19.2227 57.1337 19.6229ZM63.0918 17.2475C62.5619 17.028 62.2258 16.8602 62.0708 16.7182C61.9415 16.5891 61.8769 16.4084 61.8769 16.176C61.8769 15.9824 61.9544 15.7887 62.1483 15.6596C62.3422 15.5305 62.5619 15.466 62.885 15.466C63.1693 15.466 63.4666 15.5176 63.7509 15.5951C64.0352 15.6725 64.2937 15.7887 64.5005 15.9436L64.5651 15.9953V14.4203L64.5264 14.4074C64.3325 14.33 64.074 14.2525 63.7638 14.1879C63.4536 14.1363 63.1693 14.1105 62.9367 14.1105C62.1354 14.1105 61.4762 14.3041 60.9593 14.7301C60.4423 15.1303 60.1967 15.6725 60.1967 16.3051C60.1967 16.6408 60.2484 16.9377 60.3648 17.183C60.4811 17.4282 60.6491 17.6606 60.8817 17.8543C61.1144 18.035 61.4504 18.2415 61.9157 18.4352C62.3034 18.603 62.6007 18.7321 62.7816 18.8354C62.9625 18.9387 63.0788 19.0548 63.1693 19.1452C63.2339 19.2485 63.2727 19.3776 63.2727 19.5454C63.2727 20.023 62.9108 20.2554 62.1742 20.2554C61.8898 20.2554 61.5926 20.2038 61.2436 20.0876C60.8947 19.9714 60.5716 19.8036 60.3001 19.6099L60.2355 19.5583V21.1978L60.2743 21.2107C60.5199 21.3269 60.8171 21.4044 61.179 21.4947C61.5409 21.5593 61.864 21.6109 62.1483 21.6109C63.0142 21.6109 63.7251 21.4173 64.2291 20.9913C64.7461 20.5782 65.0175 20.0489 65.0175 19.3647C65.0175 18.887 64.8882 18.461 64.6039 18.1383C64.2291 17.8284 63.7638 17.5057 63.0918 17.2475ZM69.4505 14.1234C68.2744 14.1234 67.3309 14.472 66.6718 15.1562C66.0126 15.8404 65.6766 16.7828 65.6766 17.9704C65.6766 19.0807 66.0126 19.9843 66.6589 20.6427C67.3051 21.2882 68.1839 21.6238 69.2825 21.6238C70.4327 21.6238 71.3503 21.2753 72.0095 20.5782C72.6815 19.881 73.0046 18.9516 73.0046 17.8026C73.0046 16.6666 72.6945 15.7629 72.0612 15.1045C71.4537 14.4461 70.562 14.1234 69.4505 14.1234ZM70.7817 19.6229C70.4715 20.023 69.9804 20.2167 69.3729 20.2167C68.7526 20.2167 68.2744 20.023 67.9254 19.597C67.5765 19.1968 67.4085 18.6159 67.4085 17.8801C67.4085 17.1184 67.5894 16.5375 67.9254 16.1244C68.2744 15.7113 68.7526 15.5047 69.36 15.5047C69.9416 15.5047 70.4198 15.6984 70.7558 16.0986C71.0919 16.4988 71.2728 17.0797 71.2728 17.8413C71.2728 18.6159 71.1048 19.2227 70.7817 19.6229ZM81.987 15.6596V14.2783H80.2939V12.1612L80.2422 12.1741L78.6396 12.6517L78.6008 12.6646V14.2783H76.0677V13.3746C76.0677 12.9615 76.1711 12.6388 76.352 12.4323C76.533 12.2257 76.8044 12.1224 77.1404 12.1224C77.373 12.1224 77.6186 12.1741 77.89 12.2902L77.9546 12.329V10.8702L77.9158 10.8573C77.6832 10.7798 77.373 10.7282 76.9724 10.7282C76.4683 10.7282 76.0289 10.8444 75.6283 11.038C75.2276 11.2575 74.9303 11.5544 74.7106 11.9546C74.4909 12.3419 74.3746 12.7808 74.3746 13.2843V14.2783H73.1985V15.6467H74.3746V21.4302H76.0677V15.6596H78.6008V19.3388C78.6008 20.8493 79.3117 21.6109 80.7333 21.6109C80.966 21.6109 81.2115 21.5722 81.4442 21.5335C81.6897 21.4818 81.8707 21.4173 81.974 21.3656L81.987 21.3527V19.9714L81.9224 20.023C81.819 20.0876 81.7285 20.1392 81.5734 20.178C81.4442 20.2167 81.3278 20.2296 81.2374 20.2296C80.9013 20.2296 80.6687 20.1521 80.5007 19.9585C80.3456 19.7778 80.268 19.4808 80.268 19.0419V15.6596H81.987Z" fill="#666666"/>
<path d="M3.9375 8.13339H11.86V16.0469H3.9375V8.13339Z" fill="#666666"/>
<path d="M12.6875 8.13339H20.61V16.0469H12.6875V8.13339Z" fill="#666666"/>
<path d="M3.9375 16.8731H11.86V24.7867H3.9375V16.8731Z" fill="#666666"/>
<path d="M12.6875 16.8731H20.61V24.7867H12.6875V16.8731Z" fill="#666666"/>
</g>
<defs>
<clipPath id="clip0_394_331">
<rect width="78.0622" height="16.6533" fill="white" transform="translate(3.9375 8.13339)"/>
</clipPath>
</defs>
</svg>
