<svg width="45" height="46" viewBox="0 0 45 46" fill="none" xmlns="http://www.w3.org/2000/svg">
<rect y="0.296753" width="45" height="45" rx="12" fill="#D5F2E1"/>
<path d="M13.5 27.2968C13.5 22.3262 17.5294 18.2968 22.5 18.2968C27.4706 18.2968 31.5 22.3262 31.5 27.2968V29.7513C31.5 30.6069 31.5 31.0346 31.4228 31.3892C31.142 32.6804 30.1336 33.6888 28.8424 33.9696C28.4878 34.0468 28.0601 34.0468 27.2045 34.0468H17.7955C16.9399 34.0468 16.5122 34.0468 16.1576 33.9696C14.8665 33.6888 13.858 32.6804 13.5771 31.3892C13.5 31.0346 13.5 30.6069 13.5 29.7513V27.2968Z" fill="#86D9AA" stroke="black" stroke-width="1.6875" stroke-linecap="round" stroke-linejoin="round"/>
<path d="M22.5 18.2968V14.9218" stroke="black" stroke-width="1.6875" stroke-linecap="round" stroke-linejoin="round"/>
<path d="M22.5 14.9218C23.432 14.9218 24.1875 14.1663 24.1875 13.2343C24.1875 12.3023 23.432 11.5468 22.5 11.5468C21.568 11.5468 20.8125 12.3023 20.8125 13.2343C20.8125 14.1663 21.568 14.9218 22.5 14.9218Z" fill="#86D9AA" stroke="black" stroke-width="1.6875" stroke-linecap="round" stroke-linejoin="round"/>
<path d="M19.125 23.9217V25.0467M25.875 23.9217V25.0467" stroke="black" stroke-width="1.6875" stroke-linecap="round" stroke-linejoin="round"/>
<path d="M13.5 30.1093H18.1109C18.7445 30.1093 19.3361 29.7927 19.6875 29.2655C20.0389 28.7384 20.6306 28.4218 21.2641 28.4218H23.7359C24.3694 28.4218 24.9611 28.7384 25.3125 29.2655C25.6639 29.7927 26.2556 30.1093 26.8891 30.1093H31.5" fill="#86D9AA"/>
<path d="M13.5 30.1093H18.1109C18.7445 30.1093 19.3361 29.7927 19.6875 29.2655C20.0389 28.7384 20.6306 28.4218 21.2641 28.4218H23.7359C24.3694 28.4218 24.961 28.7384 25.3125 29.2655C25.664 29.7927 26.2556 30.1093 26.8891 30.1093H31.5" stroke="black" stroke-width="1.6875" stroke-linecap="round" stroke-linejoin="round"/>
</svg>
