<svg width="45" height="46" viewBox="0 0 45 46" fill="none" xmlns="http://www.w3.org/2000/svg">
<rect y="0.899536" width="45" height="45" rx="12.9863" fill="#FCE5BC"/>
<path d="M23.8914 16.5087L25.3087 19.3668C25.502 19.7647 26.0174 20.1463 26.4523 20.2194L29.0212 20.6497C30.6641 20.9258 31.0507 22.1275 29.8668 23.313L27.8697 25.3267C27.5314 25.6677 27.3463 26.3254 27.4509 26.7964L28.0227 29.2891C28.4737 31.2622 27.4348 32.0254 25.7034 30.9942L23.2955 29.557C22.8607 29.2972 22.1439 29.2972 21.701 29.557L19.2931 30.9942C17.5697 32.0255 16.5228 31.254 16.9738 29.2891L17.5456 26.7964C17.6503 26.3254 17.465 25.6677 17.1268 25.3267L15.1296 23.313C13.9539 22.1275 14.3324 20.9258 15.9752 20.6498L18.5442 20.2194C18.971 20.1463 19.4864 19.7647 19.6796 19.3668L21.097 16.5087C21.8701 14.9579 23.1263 14.9579 23.8914 16.5087Z" fill="#F4D458" stroke="black" stroke-width="1.2081" stroke-linecap="round" stroke-linejoin="round"/>
</svg>
