<svg width="45" height="46" viewBox="0 0 45 46" fill="none" xmlns="http://www.w3.org/2000/svg">
<rect y="0.899536" width="45" height="45" rx="12" fill="#FBD7FF"/>
<path d="M23.297 15.8243L23.297 16.223C23.2971 18.4783 23.2972 19.606 23.9979 20.3066C24.6986 21.0073 25.8263 21.0072 28.0817 21.0071L28.4804 21.007M28.8791 22.3282L28.8793 24.994C28.8794 28.0011 28.8795 29.5048 27.9453 30.439C27.0112 31.3733 25.5076 31.3733 22.5005 31.3735C19.4933 31.3737 17.9897 31.3738 17.0555 30.4396C16.1212 29.5055 16.1211 28.0018 16.121 24.9947L16.1208 21.3712C16.1206 18.7837 16.1205 17.4899 16.827 16.6135C16.9698 16.4365 17.131 16.2752 17.308 16.1324C18.1843 15.4258 19.4781 15.4258 22.0656 15.4256C22.6283 15.4256 22.9095 15.4256 23.1672 15.5165C23.2208 15.5354 23.2732 15.5571 23.3245 15.5817C23.571 15.6995 23.7699 15.8984 24.1677 16.2962L27.9448 20.0729C28.4058 20.5338 28.6362 20.7642 28.7577 21.0573C28.8791 21.3504 28.8791 21.6763 28.8791 22.3282Z" fill="#DE94E6"/>
<path d="M23.297 15.8243L23.297 16.223C23.2971 18.4783 23.2972 19.606 23.9979 20.3066C24.6986 21.0073 25.8263 21.0072 28.0817 21.0071L28.4804 21.007M28.8791 22.3282L28.8793 24.994C28.8794 28.0011 28.8795 29.5048 27.9453 30.439C27.0112 31.3733 25.5076 31.3733 22.5005 31.3735C19.4933 31.3737 17.9897 31.3738 17.0555 30.4396C16.1212 29.5055 16.1211 28.0018 16.121 24.9947L16.1208 21.3712C16.1206 18.7837 16.1205 17.4899 16.827 16.6135C16.9698 16.4365 17.131 16.2752 17.308 16.1324C18.1843 15.4258 19.4781 15.4258 22.0656 15.4256C22.6283 15.4256 22.9095 15.4256 23.1672 15.5165C23.2208 15.5354 23.2732 15.5571 23.3245 15.5817C23.571 15.6995 23.7699 15.8984 24.1677 16.2962L27.9448 20.0729C28.4058 20.5338 28.6362 20.7642 28.7577 21.0573C28.8791 21.3504 28.8791 21.6763 28.8791 22.3282Z" stroke="black" stroke-width="1.19609" stroke-linecap="round" stroke-linejoin="round"/>
</svg>
