<svg width="45" height="46" viewBox="0 0 45 46" fill="none" xmlns="http://www.w3.org/2000/svg">
<rect y="0.296753" width="45" height="45" rx="12" fill="#E3D3BF"/>
<path d="M11.2677 24.4568C11.3413 27.9056 11.3781 29.6299 12.6506 30.9073C13.9231 32.1847 15.6941 32.2291 19.2362 32.3181C21.4192 32.373 23.5808 32.373 25.7639 32.3181C29.3059 32.2291 31.0769 32.1847 32.3495 30.9073C33.622 29.6299 33.6588 27.9056 33.7322 24.4568C33.756 23.3479 33.756 22.2456 33.7322 21.1367C33.6588 17.688 33.622 15.9636 32.3495 14.6862C31.0769 13.4089 29.3059 13.3644 25.7639 13.2754C23.5808 13.2205 21.4192 13.2205 19.2362 13.2754C15.6941 13.3644 13.9231 13.4089 12.6506 14.6862C11.378 15.9636 11.3413 17.688 11.2677 21.1367C11.2441 22.2456 11.2441 23.3479 11.2677 24.4568Z" fill="#CBAE8A" stroke="black" stroke-width="1.6875" stroke-linejoin="round"/>
<path d="M11.25 16.0468L19.0271 20.4533C21.8943 22.0779 23.1057 22.0779 25.9729 20.4533L33.75 16.0468" fill="#CBAE8A"/>
<path d="M11.25 16.0468L19.0271 20.4533C21.8943 22.0779 23.1057 22.0779 25.9729 20.4533L33.75 16.0468" stroke="black" stroke-width="1.6875" stroke-linejoin="round"/>
</svg>
