<svg width="45" height="46" viewBox="0 0 45 46" fill="none" xmlns="http://www.w3.org/2000/svg">
<rect y="0.899536" width="45" height="45" rx="12" fill="#FFDAC7"/>
<path d="M16.4949 19.7933H24.9899" stroke="black" stroke-width="1.5928" stroke-linecap="round" stroke-linejoin="round"/>
<path d="M16.4949 24.0407H20.7424" stroke="black" stroke-width="1.5928" stroke-linecap="round" stroke-linejoin="round"/>
<path d="M21.8043 35.1903V34.6594C21.8043 31.656 21.8043 30.1543 22.7374 29.2212C23.6704 28.2882 25.1721 28.2882 28.1755 28.2882H28.7065M29.2374 26.5288V22.9788C29.2374 18.9743 29.2374 16.972 27.9933 15.7279C26.7493 14.4839 24.747 14.4839 20.7424 14.4839C16.7379 14.4839 14.7356 14.4839 13.4916 15.7279C12.2475 16.972 12.2475 18.9743 12.2475 22.9788V27.8042C12.2475 31.2499 12.2475 32.9728 13.1884 34.1398C13.3785 34.3756 13.5932 34.5903 13.829 34.7803C14.9959 35.7213 16.7188 35.7213 20.1646 35.7213C20.9138 35.7213 21.2884 35.7213 21.6314 35.6002C21.7028 35.575 21.7727 35.5461 21.841 35.5135C22.1692 35.3564 22.434 35.0916 22.9638 34.5618L27.9933 29.5323C28.6072 28.9184 28.9141 28.6115 29.0758 28.2212C29.2374 27.8309 29.2374 27.3968 29.2374 26.5288Z" stroke="black" stroke-width="1.5928" stroke-linecap="round" stroke-linejoin="round"/>
<g clip-path="url(#clip0_1950_3063)">
<path d="M33.8817 19.8816H33.8876H33.8817ZM33.8817 19.8816C33.4941 20.2659 32.7917 20.1702 32.299 20.1702C31.6944 20.1702 31.4032 20.2885 30.9716 20.72C30.6042 21.0876 30.1115 21.749 29.5303 21.749C28.9491 21.749 28.4565 21.0876 28.089 20.72C27.6575 20.2885 27.3663 20.1702 26.7616 20.1702C26.269 20.1702 25.5665 20.2659 25.1789 19.8816C24.7882 19.4941 24.8843 18.7888 24.8843 18.293C24.8843 17.6664 24.7473 17.3784 24.3011 16.9322C23.6374 16.2685 23.3056 15.9366 23.3056 15.5242C23.3056 15.1119 23.6374 14.78 24.3011 14.1163C24.6994 13.718 24.8843 13.3234 24.8843 12.7555C24.8843 12.2629 24.7886 11.5604 25.173 11.1728C25.5604 10.7821 26.2658 10.8783 26.7616 10.8783C27.3294 10.8783 27.7241 10.6933 28.1224 10.2951C28.7861 9.63135 29.1179 9.2995 29.5303 9.2995C29.9427 9.2995 30.2746 9.63135 30.9382 10.2951C31.3364 10.6933 31.7311 10.8783 32.299 10.8783C32.7917 10.8783 33.4942 10.7825 33.8818 11.1669C34.2725 11.5544 34.1763 12.2597 34.1763 12.7555C34.1763 13.3821 34.3134 13.6701 34.7595 14.1163C35.4232 14.78 35.7551 15.1119 35.7551 15.5242C35.7551 15.9366 35.4232 16.2685 34.7595 16.9322C34.3133 17.3784 34.1763 17.6664 34.1763 18.293C34.1763 18.7888 34.2725 19.4941 33.8817 19.8816Z" fill="#FF553E"/>
<path d="M33.8817 19.8816H33.8876M33.8817 19.8816C33.4941 20.2659 32.7917 20.1702 32.299 20.1702C31.6944 20.1702 31.4032 20.2885 30.9716 20.72C30.6042 21.0876 30.1115 21.749 29.5303 21.749C28.9491 21.749 28.4565 21.0876 28.089 20.72C27.6575 20.2885 27.3663 20.1702 26.7616 20.1702C26.269 20.1702 25.5665 20.2659 25.1789 19.8816C24.7882 19.4941 24.8843 18.7888 24.8843 18.293C24.8843 17.6664 24.7473 17.3783 24.3011 16.9322C23.6374 16.2685 23.3056 15.9366 23.3056 15.5242C23.3056 15.1119 23.6374 14.78 24.3011 14.1163C24.6994 13.718 24.8843 13.3234 24.8843 12.7555C24.8843 12.2629 24.7886 11.5604 25.173 11.1728C25.5604 10.7821 26.2658 10.8783 26.7616 10.8783C27.3294 10.8783 27.7241 10.6933 28.1224 10.2951C28.7861 9.63135 29.1179 9.2995 29.5303 9.2995C29.9427 9.2995 30.2746 9.63135 30.9382 10.2951C31.3364 10.6933 31.7311 10.8783 32.299 10.8783C32.7917 10.8783 33.4942 10.7825 33.8818 11.1669C34.2725 11.5544 34.1763 12.2597 34.1763 12.7555C34.1763 13.382 34.3134 13.6701 34.7595 14.1163C35.4232 14.78 35.7551 15.1119 35.7551 15.5242C35.7551 15.9366 35.4232 16.2685 34.7595 16.9322C34.3133 17.3783 34.1763 17.6664 34.1763 18.293C34.1763 18.7888 34.2725 19.4941 33.8817 19.8816Z" stroke="black" stroke-width="0.933712"/>
<path d="M27.6628 16.08C27.6628 16.08 28.4098 16.4858 28.7833 17.0804C28.7833 17.0804 29.9038 14.7461 31.3977 13.968" stroke="black" stroke-width="0.933712" stroke-linecap="round" stroke-linejoin="round"/>
</g>
<defs>
<clipPath id="clip0_1950_3063">
<rect width="14.9394" height="14.9394" fill="white" transform="translate(22.0606 8.0545)"/>
</clipPath>
</defs>
</svg>
