<svg width="45" height="46" viewBox="0 0 45 46" fill="none" xmlns="http://www.w3.org/2000/svg">
<rect y="0.296753" width="45" height="45" rx="12.9863" fill="#CDC4FC"/>
<path d="M25 25.2968C25 25.9871 25.5597 26.5468 26.25 26.5468C26.9403 26.5468 27.5 25.9871 27.5 25.2968C27.5 24.6064 26.9403 24.0468 26.25 24.0468C25.5597 24.0468 25 24.6064 25 25.2968Z" stroke="black" stroke-width="1.25"/>
<path d="M25.0032 19.2989C20.4802 18.9855 16.7539 18.3143 15 17.7965V25.3477C15 27.0097 15 27.8407 15.5163 28.5185C16.0326 29.1962 16.741 29.3877 18.1578 29.7705C20.4469 30.389 22.8529 30.7573 25.0088 30.968C27.2432 31.1863 28.3604 31.2955 29.1803 30.5463C30 29.7972 30 28.5937 30 26.1867V24.5087C30 22.1713 30 21.0026 29.3274 20.2773C28.6549 19.5519 27.4377 19.4676 25.0032 19.2989Z" fill="#755CF8" stroke="black" stroke-width="1.25" stroke-linecap="round" stroke-linejoin="round"/>
<path d="M27.1882 19.4634C27.5029 18.2773 27.7877 16.1203 26.9392 15.0492C26.4013 14.3703 25.6019 14.4355 24.8182 14.5045C20.6983 14.8668 17.7879 15.6028 16.1608 16.1029C15.4612 16.3179 15 17.0011 15 17.7638" stroke="black" stroke-width="1.25" stroke-linejoin="round"/>
</svg>
